<svg xmlns="http://www.w3.org/2000/svg" xmlns:xlink="http://www.w3.org/1999/xlink" width="500" zoomAndPan="magnify" viewBox="0 0 375 374.999991" height="500" preserveAspectRatio="xMidYMid meet" version="1.0"><defs><g/><clipPath id="401ca86fa8"><path d="M 14 74 L 359 74 L 359 301.144531 L 14 301.144531 Z M 14 74 " clip-rule="nonzero"/></clipPath></defs><path fill="#ffffff" d="M 199.675781 75.777344 C 199.40625 75.507812 199.136719 75.238281 198.867188 75.238281 C 197.523438 74.96875 196.175781 74.433594 194.832031 74.164062 C 191.871094 73.894531 188.910156 74.164062 185.949219 74.433594 C 184.605469 74.699219 183.527344 74.699219 182.183594 74.699219 C 180.570312 74.96875 178.683594 74.96875 177.070312 75.238281 C 174.917969 75.507812 172.765625 75.507812 170.613281 75.777344 C 166.84375 76.046875 163.347656 76.585938 159.578125 76.855469 C 159.042969 76.855469 158.503906 77.125 157.964844 77.125 C 156.351562 77.394531 154.464844 77.664062 152.851562 77.933594 C 150.96875 78.203125 149.085938 78.46875 147.199219 78.738281 C 144.242188 79.546875 141.28125 80.355469 138.320312 81.433594 C 134.820312 82.507812 131.59375 83.585938 128.363281 84.664062 C 125.941406 85.472656 123.519531 86.277344 121.097656 87.085938 C 117.601562 88.433594 114.101562 90.046875 110.601562 91.664062 C 106.835938 93.28125 102.800781 95.164062 99.03125 97.050781 C 96.609375 98.125 94.457031 99.742188 92.304688 100.820312 C 89.613281 101.894531 87.191406 103.242188 85.039062 104.859375 C 82.078125 106.742188 78.582031 108.089844 75.890625 110.242188 C 75.890625 110.242188 75.621094 110.242188 75.621094 110.511719 C 73.738281 111.589844 71.851562 112.933594 70.238281 114.28125 C 68.085938 115.628906 66.203125 117.242188 64.050781 118.589844 C 62.164062 119.9375 60.550781 121.011719 58.667969 122.089844 C 58.398438 122.089844 58.398438 122.359375 58.128906 122.359375 C 56.785156 123.4375 55.4375 124.511719 54.09375 125.589844 C 53.824219 125.859375 53.285156 126.128906 53.015625 126.398438 C 52.476562 126.9375 51.671875 127.476562 51.132812 128.011719 C 49.785156 129.089844 48.441406 130.167969 47.363281 131.511719 C 46.019531 132.859375 44.40625 133.9375 43.058594 135.28125 C 41.714844 136.628906 40.097656 137.976562 39.023438 139.320312 C 37.945312 140.9375 36.871094 142.554688 34.988281 143.898438 C 33.910156 143.898438 33.910156 144.4375 33.640625 144.4375 C 33.371094 144.976562 32.832031 145.515625 32.296875 146.054688 C 30.949219 147.9375 29.066406 149.824219 27.722656 151.976562 C 25.835938 154.9375 23.953125 157.632812 22.609375 160.863281 C 21.261719 164.09375 19.917969 167.054688 18.570312 170.285156 C 17.765625 172.171875 16.957031 174.324219 16.6875 176.480469 C 16.417969 177.824219 15.613281 179.171875 15.613281 180.519531 C 15.613281 184.289062 14.535156 187.789062 15.074219 191.558594 C 15.074219 191.558594 15.074219 191.828125 15.074219 191.828125 C 15.34375 194.789062 15.34375 197.75 15.613281 200.710938 C 15.878906 203.671875 16.148438 206.367188 16.957031 209.058594 C 16.957031 209.328125 16.957031 209.597656 16.957031 209.597656 C 17.226562 212.289062 17.765625 214.980469 18.570312 217.40625 C 20.1875 221.984375 21.261719 226.828125 23.683594 231.40625 C 24.761719 233.292969 25.300781 235.175781 26.375 237.0625 C 28.257812 240.292969 30.144531 243.523438 32.027344 246.753906 C 32.296875 247.023438 32.566406 247.292969 32.832031 247.832031 C 33.101562 248.101562 33.371094 248.640625 33.640625 248.90625 C 34.71875 250.792969 35.792969 252.410156 37.410156 254.023438 C 38.484375 255.101562 39.023438 256.179688 39.832031 257.253906 C 42.253906 259.949219 44.40625 262.371094 46.828125 264.792969 C 47.902344 265.871094 48.980469 266.949219 50.054688 267.753906 C 51.671875 269.101562 53.285156 270.179688 54.898438 271.523438 C 58.128906 274.488281 61.898438 277.179688 65.664062 279.601562 C 70.238281 282.296875 74.8125 284.71875 79.386719 287.410156 C 80.195312 287.949219 81.273438 287.949219 82.078125 288.21875 C 83.425781 288.757812 84.769531 289.566406 86.117188 290.105469 C 87.191406 290.640625 88.539062 291.179688 89.613281 291.449219 C 90.960938 291.988281 92.304688 292.257812 93.648438 292.527344 C 98.492188 293.875 103.070312 296.027344 107.914062 296.566406 C 110.335938 296.835938 112.757812 297.644531 115.179688 297.914062 C 117.0625 298.179688 118.945312 298.71875 120.828125 298.988281 C 122.445312 299.257812 124.058594 299.257812 125.671875 299.257812 C 128.632812 299.527344 131.324219 300.066406 134.285156 300.335938 C 136.167969 300.605469 138.050781 300.605469 140.203125 300.605469 C 141.550781 300.605469 142.625 300.335938 143.972656 300.335938 C 146.929688 300.335938 149.621094 300.875 152.582031 300.875 C 154.464844 300.875 156.351562 300.605469 158.234375 300.605469 C 160.925781 300.605469 163.617188 300.605469 166.308594 300.605469 C 168.460938 300.605469 170.34375 300.335938 172.496094 300.335938 C 174.109375 300.066406 175.457031 299.796875 177.070312 299.796875 C 178.683594 299.796875 180.300781 299.796875 181.644531 298.988281 C 181.914062 298.71875 182.453125 298.988281 182.992188 298.988281 C 183.527344 298.988281 184.335938 298.988281 184.875 299.257812 C 185.949219 299.527344 186.757812 298.71875 187.566406 298.71875 C 188.910156 298.988281 190.257812 298.449219 191.601562 298.449219 C 192.410156 298.449219 193.484375 298.71875 194.292969 298.449219 C 196.445312 298.179688 198.597656 297.914062 200.75 297.375 C 202.902344 297.105469 205.324219 296.566406 207.480469 296.296875 C 209.09375 296.027344 210.707031 295.757812 212.324219 295.488281 C 213.128906 295.21875 214.207031 294.679688 215.011719 294.679688 C 216.628906 294.679688 218.242188 294.679688 219.855469 294.144531 C 221.472656 293.605469 223.085938 293.335938 224.96875 292.796875 C 225.777344 292.527344 226.855469 292.257812 227.929688 292.257812 C 230.621094 291.71875 233.3125 291.179688 236.003906 290.910156 C 236.273438 290.910156 236.273438 290.910156 236.542969 290.640625 C 237.886719 289.835938 239.234375 289.296875 240.847656 289.027344 C 241.921875 288.757812 242.730469 288.757812 243.808594 288.488281 C 247.035156 287.410156 250.265625 286.335938 253.496094 285.257812 C 257.261719 284.179688 260.761719 282.296875 264.796875 281.21875 C 266.679688 280.679688 268.5625 280.140625 270.449219 279.332031 C 271.523438 278.796875 272.871094 278.527344 273.945312 277.988281 C 277.445312 276.371094 280.941406 274.757812 284.710938 272.871094 C 286.324219 272.0625 287.671875 271.257812 289.285156 270.449219 C 292.246094 268.832031 295.203125 267.488281 298.433594 265.871094 C 300.046875 265.0625 301.394531 264.523438 303.007812 263.71875 C 305.160156 262.640625 307.3125 261.5625 309.46875 260.484375 C 311.351562 259.410156 312.964844 258.0625 315.117188 257.253906 C 315.925781 256.984375 316.464844 256.445312 317 255.910156 C 317.808594 255.371094 318.886719 254.5625 319.691406 254.023438 C 321.308594 252.945312 322.921875 251.871094 324.535156 250.792969 C 326.421875 249.445312 328.035156 247.832031 329.917969 246.484375 C 332.339844 244.601562 334.761719 242.714844 336.914062 240.5625 C 339.605469 237.867188 341.757812 234.90625 344.449219 232.484375 C 344.71875 232.214844 344.988281 231.945312 345.257812 231.40625 C 345.796875 230.597656 346.332031 229.523438 347.140625 228.714844 C 349.292969 226.558594 350.910156 223.867188 352.523438 221.445312 C 353.867188 219.558594 354.675781 217.136719 355.484375 214.980469 C 356.558594 212.558594 356.828125 210.136719 358.175781 207.980469 C 358.441406 207.710938 358.441406 207.441406 358.441406 207.175781 C 358.980469 203.671875 359.25 199.902344 359.789062 196.402344 C 360.328125 192.902344 359.789062 189.671875 359.789062 186.171875 C 359.789062 183.480469 358.980469 180.519531 358.710938 177.824219 C 358.710938 177.554688 358.441406 177.015625 358.441406 176.75 C 357.636719 175.402344 357.636719 173.785156 357.636719 172.171875 C 357.636719 171.632812 357.367188 171.09375 357.367188 170.824219 C 356.828125 169.746094 356.019531 168.671875 356.019531 167.324219 C 356.019531 167.054688 356.019531 166.785156 355.753906 166.515625 C 354.945312 165.441406 354.675781 164.363281 354.136719 163.015625 C 352.792969 160.59375 351.445312 158.167969 350.101562 155.746094 C 349.292969 154.132812 348.21875 152.785156 347.410156 150.898438 C 346.871094 149.554688 346.066406 148.476562 345.257812 147.398438 C 344.179688 145.785156 342.296875 144.167969 341.757812 142.015625 C 341.757812 141.746094 341.222656 141.476562 341.222656 141.476562 C 340.953125 141.207031 340.683594 141.207031 340.683594 141.207031 C 339.335938 139.589844 337.992188 137.976562 336.378906 136.089844 C 333.148438 132.589844 330.1875 129.089844 326.6875 125.859375 C 326.421875 125.589844 326.152344 125.320312 325.882812 125.050781 C 324.804688 123.972656 323.730469 122.898438 322.382812 122.089844 C 320.230469 120.203125 317.808594 118.320312 315.386719 116.433594 C 313.773438 115.089844 311.890625 113.742188 310.273438 112.398438 C 310.003906 112.398438 310.003906 112.128906 309.734375 112.128906 C 308.390625 111.320312 306.777344 110.511719 305.429688 109.433594 C 303.816406 108.359375 302.46875 107.28125 300.855469 106.203125 C 300.046875 105.664062 299.242188 105.125 298.433594 104.589844 C 296.550781 103.511719 294.667969 102.703125 292.78125 101.625 C 290.898438 100.550781 289.015625 99.742188 287.132812 98.933594 C 282.019531 98.125 278.519531 96.242188 274.753906 94.894531 C 270.984375 93.546875 266.949219 92.203125 263.183594 91.125 C 259.144531 90.046875 255.378906 88.972656 251.34375 88.433594 C 246.5 87.625 241.921875 86.546875 237.078125 86.007812 C 234.386719 85.742188 231.429688 85.472656 228.738281 85.203125 C 226.585938 84.933594 224.699219 84.664062 222.816406 84.933594 C 222.277344 84.933594 221.742188 84.933594 221.203125 84.933594 C 217.972656 84.933594 214.746094 84.664062 211.515625 84.664062 C 209.632812 84.664062 208.015625 84.664062 206.402344 85.742188 C 204.519531 84.664062 204.25 84.664062 202.636719 84.933594 C 201.558594 85.203125 200.214844 85.203125 199.136719 84.933594 C 198.328125 84.664062 197.253906 84.933594 196.445312 85.203125 C 196.175781 85.203125 195.636719 85.472656 195.371094 85.472656 C 194.5625 85.472656 193.753906 85.472656 193.214844 85.742188 C 192.679688 85.742188 191.871094 86.007812 191.332031 86.007812 C 188.371094 85.742188 185.414062 86.007812 182.453125 86.277344 C 181.644531 86.277344 180.570312 86.277344 179.761719 86.546875 C 176.800781 87.085938 173.839844 87.894531 170.613281 87.625 C 169.535156 87.625 168.460938 87.355469 167.382812 87.894531 C 167.113281 87.894531 166.84375 87.894531 166.574219 87.894531 C 166.308594 87.894531 165.769531 87.894531 165.5 87.894531 C 164.691406 88.703125 163.347656 88.703125 162.269531 88.972656 C 161.464844 89.242188 160.925781 89.242188 160.117188 89.777344 C 160.117188 90.046875 159.308594 90.316406 159.042969 90.316406 C 157.425781 90.046875 156.351562 90.855469 155.003906 91.394531 C 153.390625 91.933594 153.390625 92.203125 154.464844 93.546875 C 154.464844 93.546875 154.464844 93.816406 154.464844 93.816406 C 153.660156 94.085938 153.121094 94.625 152.3125 94.894531 C 152.582031 95.164062 152.851562 95.433594 153.121094 95.433594 C 154.464844 95.164062 155.542969 94.894531 156.886719 94.625 C 157.15625 94.625 157.425781 94.355469 157.695312 94.355469 C 159.308594 94.355469 160.925781 94.085938 162.269531 94.085938 C 163.078125 94.085938 163.617188 93.816406 163.617188 93.011719 C 163.617188 92.203125 164.152344 92.203125 164.691406 92.203125 C 165.230469 92.203125 165.769531 92.203125 166.308594 92.203125 C 166.308594 92.742188 166.039062 93.011719 166.039062 93.546875 C 167.652344 93.816406 168.996094 94.085938 170.34375 93.011719 C 170.074219 92.742188 169.804688 92.203125 169.535156 91.933594 C 170.613281 91.664062 171.417969 91.394531 171.957031 92.472656 C 172.496094 93.28125 173.304688 93.546875 174.109375 93.546875 C 176.261719 93.011719 178.148438 92.742188 180.300781 92.742188 C 183.796875 92.472656 187.027344 92.203125 190.527344 91.933594 C 193.753906 91.664062 196.984375 91.664062 200.214844 91.664062 C 205.59375 91.394531 211.246094 91.394531 216.628906 91.933594 C 219.050781 92.203125 221.742188 92.203125 224.164062 92.472656 C 224.699219 92.472656 225.507812 92.472656 226.046875 92.472656 C 226.585938 92.472656 227.121094 92.472656 227.660156 92.472656 C 228.738281 92.472656 229.8125 92.742188 230.890625 92.742188 C 231.699219 92.742188 232.503906 92.742188 233.3125 93.011719 C 235.464844 92.742188 237.347656 93.011719 239.5 93.28125 C 240.578125 93.28125 241.65625 93.546875 242.460938 93.546875 C 245.152344 94.085938 247.574219 94.894531 250.265625 95.433594 C 252.6875 95.972656 255.378906 96.242188 257.800781 97.050781 C 259.953125 97.855469 262.375 98.125 264.796875 98.933594 C 268.027344 100.011719 271.253906 101.085938 274.484375 102.164062 C 276.367188 102.703125 277.984375 103.511719 279.867188 104.050781 C 281.210938 104.589844 282.558594 105.394531 284.171875 106.203125 C 286.324219 107.011719 288.476562 108.089844 290.359375 109.164062 C 291.4375 109.972656 292.78125 110.511719 294.128906 111.050781 C 295.742188 111.859375 297.359375 112.398438 298.972656 113.742188 C 299.78125 114.550781 300.855469 115.089844 301.664062 115.628906 C 303.007812 116.433594 304.625 117.242188 305.96875 118.320312 C 308.390625 120.203125 311.351562 121.550781 313.234375 123.972656 C 315.65625 125.859375 318.078125 127.207031 319.960938 129.359375 C 321.84375 131.511719 324.265625 133.398438 326.152344 135.28125 C 327.226562 136.359375 328.035156 137.4375 329.113281 138.515625 C 330.996094 140.128906 332.609375 142.015625 333.957031 144.167969 C 335.570312 146.054688 337.453125 147.9375 338.261719 150.359375 C 340.144531 151.976562 340.414062 154.398438 342.296875 156.015625 C 343.910156 158.976562 345.527344 161.671875 346.871094 164.632812 C 347.679688 166.515625 348.488281 168.402344 349.023438 170.285156 C 349.292969 171.09375 349.5625 171.902344 349.832031 172.980469 C 350.371094 174.59375 350.910156 175.941406 351.175781 177.554688 C 351.445312 178.632812 351.445312 179.710938 351.714844 180.785156 C 351.984375 182.941406 352.523438 185.09375 352.253906 187.25 C 352.253906 188.59375 351.984375 190.210938 351.984375 191.558594 C 352.253906 194.25 351.445312 196.941406 351.175781 199.632812 C 350.640625 203.136719 349.5625 206.367188 348.21875 209.597656 C 346.332031 214.175781 344.179688 218.214844 341.222656 221.984375 C 340.683594 222.789062 339.875 223.328125 339.335938 224.40625 C 338.261719 226.289062 336.644531 228.175781 335.03125 229.792969 C 333.6875 231.40625 332.070312 232.753906 330.457031 234.367188 C 330.1875 234.636719 329.917969 234.90625 329.917969 235.175781 C 329.648438 235.984375 328.84375 236.792969 328.035156 237.0625 C 326.691406 237.597656 325.882812 238.40625 325.074219 239.214844 C 324.535156 239.484375 324.269531 240.023438 323.730469 240.292969 C 322.652344 241.101562 321.578125 241.90625 320.5 242.714844 C 319.425781 243.523438 318.347656 244.601562 317.269531 245.40625 C 315.117188 246.753906 312.964844 247.832031 311.082031 249.714844 C 310.542969 250.253906 310.003906 250.792969 309.46875 251.0625 C 307.3125 251.601562 305.699219 253.214844 303.816406 254.292969 C 303.277344 254.5625 302.738281 254.5625 302.46875 254.832031 C 301.125 256.445312 298.703125 256.714844 297.089844 258.0625 C 295.203125 259.410156 292.515625 259.679688 290.628906 261.5625 C 290.628906 261.5625 290.359375 261.5625 290.359375 261.832031 C 289.285156 262.371094 288.207031 262.640625 287.402344 263.179688 C 286.59375 263.71875 285.785156 264.253906 284.980469 264.523438 C 283.363281 265.332031 281.75 265.871094 279.867188 266.679688 C 278.25 267.488281 276.636719 268.023438 275.023438 268.5625 C 274.214844 268.832031 273.675781 269.371094 273.140625 269.640625 C 270.179688 270.71875 267.757812 272.332031 264.796875 273.140625 C 262.644531 273.679688 260.492188 275.027344 258.070312 275.296875 C 257.800781 275.296875 257.800781 275.296875 257.53125 275.5625 C 255.917969 276.101562 254.570312 276.910156 252.957031 277.449219 C 252.417969 277.71875 251.609375 277.988281 250.804688 277.988281 C 249.1875 278.527344 247.574219 278.796875 246.230469 279.332031 C 244.613281 279.871094 242.730469 280.410156 241.117188 281.21875 C 239.769531 281.757812 238.15625 282.027344 236.8125 282.566406 C 235.195312 283.101562 233.582031 283.640625 231.96875 284.179688 C 228.738281 284.988281 225.777344 285.527344 222.546875 286.335938 C 220.664062 286.871094 218.511719 287.140625 216.628906 287.679688 C 215.011719 287.949219 213.667969 287.949219 212.054688 288.488281 C 210.4375 289.027344 208.824219 289.296875 207.210938 289.296875 C 205.59375 289.566406 204.25 289.566406 202.902344 290.375 C 202.636719 290.375 202.367188 290.640625 202.097656 290.640625 C 199.136719 290.640625 196.175781 291.449219 193.484375 291.71875 C 191.601562 291.988281 189.988281 292.257812 188.105469 292.257812 C 187.027344 292.257812 185.683594 292.257812 184.605469 292.257812 C 181.644531 292.527344 178.683594 292.796875 175.726562 293.066406 C 173.574219 293.335938 171.152344 293.335938 168.996094 293.605469 C 165.769531 293.875 162.269531 294.144531 159.042969 294.144531 C 156.621094 294.144531 153.929688 294.144531 151.507812 294.144531 C 148.546875 294.144531 145.855469 294.144531 142.894531 294.144531 C 140.472656 294.144531 138.320312 293.875 135.898438 293.875 C 133.476562 293.605469 131.054688 293.605469 128.632812 293.335938 C 126.75 293.066406 124.597656 292.796875 122.710938 292.527344 C 121.367188 292.257812 120.289062 292.257812 118.945312 291.988281 C 115.445312 291.449219 111.679688 290.640625 108.179688 290.105469 C 107.375 289.835938 106.566406 289.835938 106.027344 289.566406 C 103.875 289.027344 101.722656 288.488281 99.570312 287.949219 C 96.070312 286.871094 92.574219 285.796875 88.804688 284.71875 C 88.269531 284.449219 87.460938 284.179688 86.921875 283.910156 C 84.769531 283.101562 82.886719 282.296875 80.734375 281.488281 C 79.386719 280.949219 78.042969 280.140625 76.695312 279.332031 C 74.8125 278.257812 73.199219 276.910156 71.046875 276.101562 C 68.625 275.296875 67.007812 272.871094 64.320312 272.332031 C 64.320312 272.332031 64.050781 272.332031 64.050781 272.0625 C 62.972656 271.257812 61.898438 270.449219 60.550781 269.371094 C 58.128906 267.21875 55.707031 265.332031 53.015625 263.179688 C 51.941406 262.371094 51.132812 261.292969 50.054688 260.484375 C 49.25 259.679688 48.441406 258.871094 47.632812 258.0625 C 46.828125 256.984375 45.75 256.179688 44.945312 255.101562 C 44.40625 254.5625 43.867188 254.292969 43.597656 253.753906 C 41.445312 251.0625 39.5625 248.640625 37.410156 245.945312 C 36.0625 244.332031 34.988281 242.445312 33.910156 240.5625 C 32.296875 237.867188 30.949219 234.90625 29.605469 231.945312 C 29.605469 231.675781 29.335938 231.40625 29.335938 231.136719 C 29.066406 229.253906 27.988281 227.636719 27.453125 225.753906 C 26.914062 223.597656 26.105469 221.714844 25.300781 219.558594 C 24.761719 217.40625 23.953125 215.25 23.683594 212.828125 C 23.414062 210.941406 22.878906 209.058594 22.878906 207.171875 C 22.609375 203.671875 22.339844 200.441406 22.339844 196.941406 C 22.339844 193.980469 22.339844 191.289062 22.609375 188.324219 C 22.878906 184.019531 24.222656 179.710938 25.566406 175.402344 C 26.375 172.980469 27.453125 170.824219 28.527344 168.402344 C 29.066406 167.054688 29.875 165.707031 30.679688 164.363281 C 31.757812 162.746094 32.566406 160.863281 33.640625 159.246094 C 34.449219 157.902344 35.523438 156.554688 36.601562 155.207031 C 37.410156 154.398438 37.945312 153.054688 38.753906 152.515625 C 40.367188 151.4375 41.175781 149.824219 42.523438 148.476562 C 43.867188 147.128906 44.945312 145.515625 46.289062 143.898438 C 47.902344 142.015625 50.054688 140.398438 51.671875 138.785156 C 53.015625 137.4375 54.363281 136.359375 55.707031 135.28125 C 56.785156 134.207031 57.859375 133.128906 59.207031 132.320312 C 59.742188 132.050781 60.011719 131.511719 60.550781 131.246094 C 61.089844 130.707031 61.628906 130.4375 62.164062 129.898438 C 62.703125 129.628906 63.242188 129.089844 63.78125 128.820312 C 64.320312 128.28125 64.855469 127.742188 65.394531 127.207031 C 68.625 125.050781 71.316406 122.628906 74.542969 121.011719 C 75.082031 120.742188 75.621094 120.203125 76.160156 119.667969 C 76.695312 119.398438 77.234375 118.859375 77.773438 118.589844 C 80.464844 116.972656 83.15625 115.628906 85.578125 113.742188 C 87.191406 112.664062 88.804688 111.050781 90.960938 110.511719 C 91.226562 110.511719 91.226562 110.242188 91.226562 110.242188 C 93.382812 108.894531 95.804688 107.820312 97.957031 106.472656 C 99.03125 105.933594 100.378906 105.125 101.453125 104.589844 C 102.800781 104.050781 103.875 103.511719 105.222656 102.972656 C 108.179688 101.625 110.871094 100.28125 113.832031 98.933594 C 117.0625 97.316406 119.214844 96.242188 121.636719 95.433594 C 123.789062 94.625 126.210938 93.816406 128.363281 93.011719 C 129.710938 92.472656 131.324219 91.933594 132.667969 91.394531 C 135.628906 90.316406 138.589844 89.242188 141.820312 88.433594 C 145.316406 87.355469 148.816406 86.816406 152.3125 86.007812 C 153.660156 85.742188 155.003906 85.472656 156.621094 85.203125 C 157.425781 84.933594 158.503906 84.664062 159.308594 84.664062 C 160.117188 84.664062 160.65625 84.394531 161.464844 84.125 C 163.886719 83.855469 166.039062 83.316406 168.460938 83.046875 C 169.535156 83.046875 170.34375 82.777344 171.417969 82.777344 C 172.496094 82.777344 173.574219 82.507812 174.648438 82.507812 C 175.726562 82.238281 177.070312 81.972656 178.148438 81.703125 C 181.914062 81.164062 185.949219 80.894531 189.71875 80.355469 C 190.792969 80.355469 191.871094 80.085938 192.949219 80.085938 C 192.949219 78.738281 192.949219 78.738281 194.023438 78.46875 C 194.832031 78.46875 195.371094 78.46875 196.175781 78.203125 C 196.714844 77.933594 197.253906 77.664062 197.792969 77.394531 C 198.328125 76.855469 198.867188 76.316406 199.675781 75.777344 Z M 199.675781 75.777344 " fill-opacity="1" fill-rule="nonzero"/><g clip-path="url(#401ca86fa8)"><path fill="#ffffff" d="M 199.675781 75.777344 C 198.867188 76.585938 198.597656 77.125 198.058594 77.664062 C 197.523438 77.933594 196.984375 78.203125 196.445312 78.46875 C 195.636719 78.738281 195.101562 78.738281 194.292969 78.738281 C 193.214844 79.007812 193.214844 79.007812 193.214844 80.355469 C 192.140625 80.355469 191.0625 80.625 189.988281 80.625 C 186.21875 81.164062 182.183594 81.433594 178.417969 81.972656 C 177.070312 82.238281 175.996094 82.507812 174.917969 82.777344 C 173.839844 83.046875 172.765625 83.046875 171.6875 83.046875 C 170.613281 83.046875 169.804688 83.316406 168.730469 83.316406 C 166.308594 83.585938 164.152344 83.855469 161.730469 84.394531 C 160.925781 84.394531 160.386719 84.664062 159.578125 84.933594 C 158.503906 84.664062 157.425781 84.933594 156.621094 84.933594 C 155.273438 85.203125 153.929688 85.472656 152.3125 85.742188 C 148.816406 86.546875 145.316406 87.355469 141.820312 88.164062 C 138.859375 88.972656 135.628906 90.046875 132.667969 91.125 C 131.324219 91.664062 129.710938 92.203125 128.363281 92.742188 C 126.210938 93.546875 123.789062 94.355469 121.636719 95.164062 C 119.214844 96.242188 116.792969 97.050781 114.371094 98.125 C 111.410156 99.472656 108.71875 100.820312 105.757812 102.164062 C 104.414062 102.703125 103.335938 103.242188 101.992188 103.78125 C 100.648438 104.320312 99.570312 105.125 98.492188 105.664062 C 96.339844 107.011719 93.917969 108.089844 91.765625 109.433594 C 91.765625 109.433594 91.496094 109.703125 91.496094 109.703125 C 89.34375 110.242188 88 111.859375 86.117188 112.933594 C 83.695312 114.550781 81.003906 116.167969 78.3125 117.78125 C 77.773438 118.050781 77.234375 118.589844 76.695312 118.859375 C 76.160156 119.398438 75.621094 119.667969 75.082031 120.203125 C 71.851562 121.820312 68.894531 124.511719 65.933594 126.398438 C 65.394531 126.9375 64.855469 127.476562 64.320312 128.011719 C 63.78125 128.550781 63.242188 128.820312 62.703125 129.089844 C 62.164062 129.628906 61.628906 129.898438 61.089844 130.4375 C 60.550781 130.707031 60.28125 131.246094 59.742188 131.511719 C 58.398438 132.320312 57.320312 133.398438 56.246094 134.476562 C 54.898438 135.550781 53.554688 136.898438 52.207031 137.976562 C 50.324219 139.589844 48.441406 141.207031 46.828125 143.089844 C 45.480469 144.4375 44.40625 146.324219 43.058594 147.667969 C 41.445312 149.285156 40.367188 150.898438 39.023438 151.976562 C 38.214844 152.785156 37.675781 153.863281 36.871094 154.667969 C 35.792969 156.015625 34.71875 157.363281 33.910156 158.707031 C 32.832031 160.324219 31.757812 162.207031 30.949219 163.824219 C 30.144531 165.171875 29.335938 166.515625 28.796875 167.863281 C 27.722656 170.285156 26.644531 172.441406 25.835938 174.863281 C 24.492188 179.171875 23.414062 183.480469 22.878906 187.789062 C 22.609375 190.75 22.609375 193.441406 22.609375 196.402344 C 22.609375 199.902344 22.878906 203.136719 23.144531 206.636719 C 23.414062 208.519531 23.953125 210.40625 23.953125 212.289062 C 24.222656 214.445312 25.03125 216.867188 25.566406 219.019531 C 26.105469 221.175781 26.914062 223.058594 27.722656 225.214844 C 28.257812 227.097656 29.605469 228.714844 29.605469 230.597656 C 29.605469 230.867188 29.875 231.136719 29.875 231.40625 C 31.21875 234.367188 32.832031 237.0625 34.179688 240.023438 C 35.253906 241.90625 36.332031 243.792969 37.675781 245.40625 C 39.5625 248.101562 41.714844 250.792969 43.867188 253.214844 C 44.40625 253.753906 44.675781 254.292969 45.210938 254.5625 C 46.019531 255.640625 47.097656 256.445312 47.902344 257.523438 C 48.710938 258.332031 49.519531 259.140625 50.324219 259.949219 C 51.402344 260.753906 52.207031 261.832031 53.285156 262.640625 C 55.707031 264.792969 58.128906 266.679688 60.820312 268.832031 C 61.898438 269.640625 62.972656 270.71875 64.320312 271.523438 C 64.320312 271.523438 64.585938 271.792969 64.585938 271.792969 C 67.007812 272.601562 68.894531 274.757812 71.316406 275.5625 C 73.199219 276.371094 75.082031 277.71875 76.964844 278.796875 C 78.3125 279.601562 79.65625 280.410156 81.003906 280.949219 C 82.886719 281.757812 85.039062 282.566406 87.191406 283.371094 C 87.730469 283.640625 88.539062 284.179688 89.074219 284.179688 C 92.574219 285.257812 96.070312 286.335938 99.839844 287.410156 C 101.992188 287.949219 104.144531 288.488281 106.296875 289.027344 C 107.105469 289.296875 107.914062 289.296875 108.449219 289.566406 C 111.949219 290.375 115.714844 290.910156 119.214844 291.449219 C 120.289062 291.71875 121.636719 291.71875 122.980469 291.988281 C 124.867188 292.257812 127.019531 292.527344 128.902344 292.796875 C 131.324219 293.066406 133.746094 293.335938 136.167969 293.335938 C 138.589844 293.605469 140.742188 293.605469 143.164062 293.605469 C 146.125 293.605469 148.816406 293.605469 151.777344 293.605469 C 154.199219 293.605469 156.886719 293.605469 159.308594 293.605469 C 162.539062 293.605469 166.039062 293.335938 169.265625 293.066406 C 171.417969 292.796875 173.839844 292.796875 175.996094 292.527344 C 178.953125 292.257812 181.914062 291.988281 184.875 291.71875 C 185.949219 291.71875 187.296875 291.71875 188.371094 291.71875 C 190.257812 291.449219 191.871094 291.449219 193.753906 291.179688 C 196.714844 290.910156 199.40625 290.105469 202.367188 290.105469 C 202.636719 290.105469 202.902344 290.105469 203.171875 289.835938 C 204.519531 289.296875 205.863281 289.027344 207.480469 288.757812 C 209.09375 288.488281 210.707031 288.488281 212.324219 287.949219 C 213.667969 287.410156 215.28125 287.410156 216.898438 287.140625 C 218.78125 286.871094 220.933594 286.335938 222.816406 285.796875 C 226.046875 284.988281 229.007812 284.449219 232.234375 283.640625 C 233.851562 283.101562 235.464844 282.566406 237.078125 282.027344 C 238.425781 281.488281 240.039062 281.21875 241.386719 280.679688 C 243 280.140625 244.882812 279.601562 246.5 278.796875 C 248.113281 278.257812 249.457031 277.71875 251.074219 277.449219 C 251.878906 277.179688 252.417969 277.179688 253.226562 276.910156 C 254.839844 276.371094 256.1875 275.5625 257.800781 275.027344 C 258.070312 275.027344 258.070312 274.757812 258.339844 274.757812 C 260.761719 274.488281 262.644531 273.140625 265.066406 272.601562 C 268.027344 271.792969 270.71875 270.179688 273.40625 269.101562 C 274.214844 268.832031 274.753906 268.292969 275.292969 268.023438 C 276.90625 267.21875 278.519531 266.679688 280.136719 266.140625 C 281.75 265.332031 283.632812 264.792969 285.25 263.984375 C 286.054688 263.71875 286.863281 263.179688 287.671875 262.640625 C 288.746094 262.101562 289.824219 261.832031 290.628906 261.292969 C 290.628906 261.292969 290.898438 261.292969 290.898438 261.023438 C 292.515625 259.140625 295.203125 258.871094 297.359375 257.523438 C 298.972656 256.445312 301.125 255.910156 302.738281 254.292969 C 303.007812 254.023438 303.546875 254.023438 304.085938 253.753906 C 305.96875 252.945312 307.582031 251.332031 309.734375 250.523438 C 310.273438 250.253906 310.8125 249.714844 311.351562 249.175781 C 313.234375 247.5625 315.386719 246.484375 317.539062 244.871094 C 318.617188 244.0625 319.691406 242.984375 320.769531 242.175781 C 321.84375 241.367188 322.921875 240.5625 324 239.753906 C 324.535156 239.484375 324.804688 238.945312 325.34375 238.675781 C 326.421875 237.867188 327.226562 236.792969 328.304688 236.523438 C 329.109375 236.253906 329.917969 235.714844 330.1875 234.636719 C 330.1875 234.367188 330.457031 234.097656 330.726562 233.828125 C 332.339844 232.214844 333.6875 230.867188 335.300781 229.253906 C 336.914062 227.636719 338.261719 226.023438 339.605469 223.867188 C 340.144531 223.058594 340.953125 222.253906 341.488281 221.445312 C 344.449219 217.675781 346.871094 213.636719 348.488281 209.058594 C 349.832031 205.828125 350.910156 202.597656 351.445312 199.097656 C 351.984375 196.402344 352.523438 193.710938 352.253906 191.019531 C 352.253906 189.671875 352.253906 188.324219 352.523438 186.710938 C 352.792969 184.554688 352.253906 182.402344 351.984375 180.25 C 351.714844 179.171875 351.714844 178.09375 351.445312 177.015625 C 351.175781 175.402344 350.371094 174.054688 350.101562 172.441406 C 349.832031 171.632812 349.5625 170.554688 349.292969 169.746094 C 348.488281 167.863281 347.949219 165.976562 347.140625 164.09375 C 345.796875 161.132812 343.910156 158.4375 342.566406 155.476562 C 340.953125 153.863281 340.414062 151.4375 338.53125 149.824219 C 337.722656 147.398438 335.839844 145.515625 334.222656 143.628906 C 332.609375 141.746094 331.265625 139.589844 329.378906 137.976562 C 328.304688 137.167969 327.496094 135.820312 326.421875 134.746094 C 324.265625 132.859375 322.113281 130.976562 320.230469 128.820312 C 318.078125 126.667969 315.65625 125.050781 313.503906 123.4375 C 311.351562 121.011719 308.660156 119.667969 306.238281 117.78125 C 304.890625 116.703125 303.277344 115.898438 301.933594 115.089844 C 301.125 114.550781 300.046875 114.011719 299.242188 113.203125 C 297.894531 111.859375 296.28125 111.320312 294.398438 110.511719 C 293.050781 109.972656 291.976562 109.433594 290.628906 108.628906 C 288.746094 107.28125 286.59375 106.472656 284.441406 105.664062 C 283.09375 105.125 281.75 104.320312 280.136719 103.511719 C 278.519531 102.703125 276.636719 102.164062 274.753906 101.625 C 271.523438 100.550781 268.296875 99.472656 265.066406 98.394531 C 262.375 98.125 259.953125 97.855469 257.53125 97.050781 C 255.109375 96.242188 252.6875 95.972656 249.996094 95.433594 C 247.304688 94.894531 244.882812 94.085938 242.191406 93.546875 C 241.117188 93.28125 240.039062 93.28125 239.230469 93.28125 C 237.347656 93.011719 235.464844 92.742188 233.582031 92.742188 C 232.773438 92.742188 231.964844 92.742188 231.160156 92.472656 C 230.082031 92.472656 229.007812 92.203125 227.929688 92.203125 C 227.390625 92.203125 226.855469 92.203125 226.316406 92.203125 C 225.777344 92.203125 224.96875 92.203125 224.433594 92.203125 C 222.011719 91.933594 219.320312 91.933594 216.898438 91.664062 C 211.515625 91.394531 205.863281 91.394531 200.480469 91.394531 C 197.253906 91.394531 194.023438 91.394531 190.792969 91.664062 C 187.027344 91.933594 183.796875 92.203125 180.300781 92.742188 C 178.148438 92.742188 176.261719 93.011719 174.109375 93.011719 C 173.304688 93.011719 172.226562 92.742188 171.957031 91.933594 C 171.417969 90.855469 170.613281 91.394531 169.535156 91.394531 C 169.804688 91.933594 170.074219 92.203125 170.34375 92.472656 C 168.996094 93.546875 167.652344 93.546875 166.039062 93.011719 C 166.039062 92.472656 166.308594 92.203125 166.308594 91.664062 C 165.769531 91.664062 165.230469 91.664062 164.691406 91.664062 C 164.152344 91.664062 163.617188 91.933594 163.617188 92.472656 C 163.617188 93.28125 163.078125 93.546875 162.269531 93.546875 C 160.65625 93.546875 159.042969 93.816406 157.695312 93.816406 C 157.425781 93.816406 157.15625 94.085938 156.886719 94.085938 C 155.273438 94.894531 154.199219 95.433594 152.851562 95.433594 C 152.582031 95.433594 152.3125 95.164062 152.042969 94.894531 C 152.851562 94.355469 153.660156 94.085938 154.199219 93.816406 C 154.199219 93.546875 154.199219 93.546875 154.199219 93.546875 C 153.390625 91.933594 153.390625 91.933594 154.734375 91.394531 C 156.082031 90.855469 157.425781 90.316406 158.773438 90.316406 C 159.308594 90.316406 159.847656 90.046875 160.117188 89.777344 C 160.65625 89.242188 161.464844 88.972656 162.269531 88.972656 C 163.347656 88.703125 164.421875 88.703125 165.5 87.894531 C 165.769531 87.625 166.308594 87.894531 166.574219 87.894531 C 166.84375 87.894531 167.382812 88.164062 167.382812 87.894531 C 168.460938 87.085938 169.535156 87.355469 170.613281 87.355469 C 173.839844 87.625 176.53125 86.546875 179.761719 86.277344 C 180.570312 86.007812 181.644531 86.277344 182.453125 86.007812 C 185.414062 85.742188 188.371094 85.472656 191.332031 85.742188 C 191.871094 85.742188 192.410156 85.472656 193.214844 85.472656 C 194.023438 85.472656 194.832031 85.472656 195.371094 85.203125 C 195.636719 85.203125 196.175781 84.933594 196.445312 84.933594 C 197.253906 84.933594 198.328125 84.664062 199.136719 84.664062 C 200.214844 84.933594 201.558594 84.933594 202.636719 84.664062 C 204.25 84.664062 204.519531 84.664062 206.402344 85.742188 C 207.746094 84.664062 209.632812 84.394531 211.515625 84.664062 C 214.746094 84.664062 217.972656 84.933594 221.203125 85.203125 C 221.742188 85.203125 222.277344 85.203125 222.816406 85.203125 C 224.699219 84.933594 226.585938 85.203125 228.738281 85.472656 C 231.429688 85.742188 234.386719 86.007812 237.078125 86.277344 C 241.921875 86.546875 246.5 87.894531 251.34375 88.703125 C 255.378906 89.511719 259.414062 90.316406 263.183594 91.394531 C 267.21875 92.472656 270.984375 93.816406 274.753906 95.164062 C 278.519531 96.511719 282.019531 98.394531 285.785156 100.011719 C 287.671875 100.820312 289.554688 101.894531 291.4375 102.703125 C 293.320312 103.78125 295.203125 104.589844 297.089844 105.664062 C 297.894531 106.203125 298.703125 106.742188 299.511719 107.28125 C 301.125 108.359375 302.46875 109.433594 304.085938 110.511719 C 305.429688 111.320312 307.046875 112.128906 308.390625 113.203125 C 308.660156 113.203125 308.660156 113.472656 308.929688 113.472656 C 310.542969 114.820312 312.425781 116.167969 314.042969 117.511719 C 316.464844 119.398438 318.617188 121.28125 321.039062 123.167969 C 322.113281 124.242188 323.191406 125.320312 324.535156 126.128906 C 324.804688 126.398438 325.074219 126.667969 325.34375 126.9375 C 328.84375 129.898438 332.070312 133.667969 335.03125 137.167969 C 336.378906 138.785156 337.992188 140.398438 339.335938 142.285156 C 339.605469 142.554688 339.875 142.554688 339.875 142.554688 C 340.144531 142.820312 340.414062 142.820312 340.414062 143.089844 C 340.953125 145.246094 342.835938 146.589844 343.910156 148.476562 C 344.71875 149.554688 345.527344 150.628906 346.066406 151.976562 C 346.871094 153.59375 347.949219 155.207031 348.753906 156.824219 C 350.101562 159.246094 351.445312 161.667969 352.792969 164.09375 C 353.332031 165.171875 353.597656 166.515625 354.40625 167.59375 C 354.675781 167.863281 354.675781 168.132812 354.675781 168.402344 C 354.675781 169.746094 355.214844 170.824219 356.019531 171.902344 C 356.289062 172.441406 356.289062 172.710938 356.289062 173.246094 C 356.289062 174.863281 356.558594 176.210938 357.097656 177.824219 C 357.367188 178.09375 357.367188 178.363281 357.367188 178.902344 C 357.90625 181.59375 358.441406 184.554688 358.441406 187.25 C 358.441406 190.75 358.980469 193.980469 358.441406 197.480469 C 357.90625 200.980469 357.636719 204.75 357.097656 208.25 C 357.097656 208.519531 357.097656 208.789062 356.828125 209.058594 C 355.484375 211.210938 354.945312 213.90625 354.136719 216.058594 C 353.332031 218.214844 352.523438 220.636719 351.175781 222.519531 C 349.5625 224.945312 347.949219 227.636719 345.796875 229.792969 C 344.988281 230.597656 344.449219 231.675781 343.910156 232.484375 C 343.644531 232.753906 343.375 233.292969 343.105469 233.5625 C 340.414062 235.984375 338.261719 238.945312 335.570312 241.636719 C 333.417969 243.792969 330.996094 245.675781 328.574219 247.5625 C 326.6875 248.90625 325.074219 250.523438 323.191406 251.871094 C 321.578125 252.945312 319.960938 254.023438 318.347656 255.101562 C 317.539062 255.640625 316.464844 256.445312 315.65625 256.984375 C 315.117188 257.523438 314.3125 258.0625 313.773438 258.332031 C 311.621094 259.140625 310.003906 260.484375 308.121094 261.5625 C 305.96875 262.640625 303.816406 263.71875 301.664062 264.792969 C 300.046875 265.601562 298.703125 266.140625 297.089844 266.949219 C 294.128906 268.292969 291.167969 269.910156 287.9375 271.523438 C 286.324219 272.332031 284.980469 273.140625 283.363281 273.949219 C 279.867188 275.5625 276.367188 277.449219 272.601562 279.0625 C 271.523438 279.601562 270.179688 279.871094 269.101562 280.410156 C 267.21875 281.21875 265.335938 281.757812 263.453125 282.296875 C 259.683594 283.371094 256.1875 285.257812 252.148438 286.335938 C 248.921875 287.410156 245.691406 288.488281 242.460938 289.566406 C 241.386719 289.835938 240.578125 290.105469 239.5 290.105469 C 237.886719 290.375 236.542969 290.910156 235.195312 291.71875 C 235.195312 291.71875 234.925781 291.71875 234.65625 291.988281 C 231.964844 292.527344 229.277344 293.066406 226.585938 293.335938 C 225.507812 293.605469 224.699219 293.875 223.625 293.875 C 222.011719 294.410156 220.125 294.679688 218.511719 295.21875 C 216.898438 295.757812 215.28125 296.027344 213.667969 295.757812 C 212.859375 295.757812 212.054688 296.296875 210.976562 296.566406 C 209.363281 296.835938 207.746094 297.105469 206.132812 297.375 C 203.980469 297.644531 201.558594 298.179688 199.40625 298.449219 C 197.253906 298.71875 195.101562 299.257812 192.949219 299.527344 C 192.140625 299.527344 191.0625 299.527344 190.257812 299.527344 C 188.910156 299.527344 187.566406 300.066406 186.21875 299.796875 C 185.414062 299.796875 184.335938 300.335938 183.527344 300.335938 C 182.992188 300.335938 182.183594 300.335938 181.644531 300.066406 C 181.105469 300.066406 180.570312 299.796875 180.300781 300.066406 C 179.492188 300.066406 178.148438 300.066406 176.53125 300.066406 C 174.917969 300.066406 173.574219 300.605469 171.957031 300.605469 C 169.804688 300.875 167.921875 300.875 165.769531 300.875 C 163.078125 300.875 160.386719 300.875 157.695312 300.875 C 155.8125 300.875 153.929688 301.144531 152.042969 301.144531 C 149.085938 301.144531 146.394531 300.875 143.433594 300.605469 C 142.355469 300.605469 141.011719 300.875 139.664062 300.875 C 137.78125 300.875 135.898438 300.605469 133.746094 300.605469 C 130.785156 300.335938 128.09375 299.796875 125.132812 299.527344 C 123.519531 299.257812 121.90625 299.527344 120.289062 299.257812 C 118.40625 298.988281 116.523438 298.71875 114.640625 298.179688 C 112.21875 297.644531 109.796875 296.835938 107.375 296.835938 C 102.261719 296.296875 97.6875 294.144531 93.113281 292.796875 C 91.765625 292.527344 90.421875 291.988281 89.074219 291.71875 C 88 291.449219 86.652344 290.910156 85.578125 290.375 C 84.230469 289.835938 82.886719 289.027344 81.539062 288.488281 C 80.734375 288.21875 79.65625 287.949219 78.851562 287.679688 C 74.273438 285.257812 69.699219 282.566406 65.125 279.871094 C 61.359375 277.449219 57.589844 274.757812 54.363281 271.792969 C 52.746094 270.449219 51.132812 269.371094 49.519531 268.023438 C 48.441406 267.21875 47.363281 266.140625 46.289062 265.0625 C 43.867188 262.640625 41.445312 259.949219 39.292969 257.523438 C 38.484375 256.445312 37.675781 255.371094 36.871094 254.292969 C 35.253906 252.675781 34.179688 251.0625 33.101562 249.175781 C 32.832031 248.90625 32.566406 248.371094 32.296875 248.101562 C 32.027344 247.832031 31.757812 247.5625 31.488281 247.023438 C 29.605469 243.792969 27.722656 240.5625 25.835938 237.332031 C 24.761719 235.445312 24.222656 233.5625 23.144531 231.675781 C 20.722656 227.367188 19.648438 222.519531 18.035156 217.675781 C 17.226562 215.25 16.6875 212.558594 16.417969 209.867188 C 16.417969 209.597656 16.417969 209.328125 16.417969 209.328125 C 15.613281 206.636719 15.34375 203.671875 15.074219 200.980469 C 15.074219 197.75 15.074219 194.789062 14.804688 191.828125 C 14.804688 191.828125 14.804688 191.558594 14.804688 191.558594 C 14.535156 187.789062 15.34375 184.019531 15.34375 180.519531 C 15.34375 179.171875 16.148438 177.824219 16.417969 176.480469 C 16.957031 174.324219 17.496094 172.171875 18.300781 170.285156 C 19.648438 167.324219 21.261719 164.09375 22.339844 160.863281 C 23.683594 157.632812 25.566406 154.9375 27.453125 151.976562 C 28.796875 149.824219 30.679688 147.9375 32.296875 146.054688 C 32.832031 145.515625 33.101562 144.976562 33.640625 144.4375 C 33.910156 144.4375 33.910156 143.898438 34.179688 143.898438 C 35.792969 142.820312 36.871094 140.9375 38.214844 139.320312 C 39.292969 137.707031 40.90625 136.628906 42.253906 135.28125 C 43.597656 133.9375 45.210938 132.859375 46.558594 131.511719 C 47.902344 130.4375 48.980469 129.089844 50.324219 128.011719 C 50.863281 127.476562 51.671875 126.9375 52.207031 126.398438 C 52.476562 126.128906 53.015625 125.859375 53.285156 125.589844 C 54.628906 124.511719 55.976562 123.4375 57.320312 122.359375 C 57.589844 122.359375 57.589844 122.089844 57.859375 122.089844 C 59.742188 121.011719 61.359375 119.667969 63.242188 118.589844 C 65.394531 117.242188 67.277344 115.628906 69.429688 114.28125 C 71.316406 112.933594 73.199219 111.859375 74.8125 110.511719 C 74.8125 110.511719 75.082031 110.511719 75.082031 110.242188 C 77.773438 108.089844 81.273438 106.742188 84.230469 104.859375 C 86.652344 103.242188 89.074219 101.894531 91.496094 100.820312 C 93.917969 99.742188 96.070312 98.125 98.226562 97.050781 C 101.992188 95.164062 105.757812 93.28125 109.796875 91.664062 C 113.292969 90.046875 116.792969 88.703125 120.289062 87.085938 C 122.710938 86.277344 125.132812 85.472656 127.554688 84.664062 C 130.785156 83.585938 134.285156 82.507812 137.511719 81.433594 C 140.472656 80.625 143.433594 79.546875 146.394531 78.738281 C 148.277344 78.203125 150.160156 78.203125 152.042969 77.933594 C 153.660156 77.664062 155.542969 77.394531 157.15625 77.125 C 157.695312 77.125 158.234375 76.855469 158.773438 76.855469 C 162.539062 76.316406 166.039062 76.046875 169.804688 75.777344 C 171.957031 75.507812 174.109375 75.507812 176.261719 75.238281 C 177.878906 75.238281 179.761719 74.96875 181.375 74.699219 C 182.722656 74.699219 183.796875 74.699219 185.144531 74.433594 C 188.105469 74.164062 191.0625 73.894531 194.023438 74.164062 C 195.371094 74.164062 196.714844 74.699219 198.058594 75.238281 C 198.867188 74.96875 199.40625 75.507812 199.675781 75.777344 Z M 155.003906 93.546875 C 155.542969 93.816406 155.8125 93.816406 156.351562 93.816406 C 156.621094 93.816406 156.886719 93.546875 157.15625 93.546875 C 157.15625 93.28125 157.15625 92.742188 157.15625 92.472656 C 156.351562 91.933594 155.542969 92.203125 155.003906 93.546875 Z M 160.386719 93.28125 C 160.117188 92.472656 159.578125 92.472656 159.042969 93.28125 C 159.847656 93.28125 160.117188 93.28125 160.386719 93.28125 Z M 160.386719 93.28125 " fill-opacity="1" fill-rule="nonzero"/></g><path fill="#ffffff" d="M 155.003906 93.546875 C 155.8125 92.203125 156.351562 91.933594 156.886719 92.472656 C 157.15625 92.742188 157.15625 93.011719 156.886719 93.546875 C 156.886719 93.816406 156.351562 93.816406 156.082031 93.816406 C 155.8125 94.085938 155.542969 93.816406 155.003906 93.546875 Z M 155.003906 93.546875 " fill-opacity="1" fill-rule="nonzero"/><path fill="#ffffff" d="M 160.386719 93.28125 C 160.117188 93.28125 159.847656 93.28125 159.042969 93.28125 C 159.847656 92.472656 160.117188 92.472656 160.386719 93.28125 Z M 160.386719 93.28125 " fill-opacity="1" fill-rule="nonzero"/><g fill="#000000" fill-opacity="1"><g transform="translate(5.000981, 259.124983)"><g><path d="M 73.234375 -83.046875 C 85.515625 -81.046875 94.921875 -76.472656 101.453125 -69.328125 C 107.992188 -62.191406 111.265625 -53.359375 111.265625 -42.828125 C 111.265625 -34.679688 109.128906 -27.171875 104.859375 -20.296875 C 100.585938 -13.429688 94.082031 -7.929688 85.34375 -3.796875 C 76.601562 0.335938 65.898438 2.40625 53.234375 2.40625 C 43.359375 2.40625 33.648438 1.101562 24.109375 -1.5 C 14.578125 -4.101562 6.472656 -7.804688 -0.203125 -12.609375 L 12.40625 -37.421875 C 17.738281 -33.421875 23.90625 -30.316406 30.90625 -28.109375 C 37.914062 -25.910156 45.085938 -24.8125 52.421875 -24.8125 C 60.566406 -24.8125 66.972656 -26.378906 71.640625 -29.515625 C 76.304688 -32.648438 78.640625 -37.085938 78.640625 -42.828125 C 78.640625 -54.296875 69.898438 -60.03125 52.421875 -60.03125 L 37.625 -60.03125 L 37.625 -81.4375 L 66.4375 -114.0625 L 6.796875 -114.0625 L 6.796875 -140.078125 L 104.859375 -140.078125 L 104.859375 -119.0625 Z M 73.234375 -83.046875 "/></g></g></g><g fill="#000000" fill-opacity="1"><g transform="translate(123.46442, 259.124983)"><g><path d="M 75.234375 -87.84375 C 84.179688 -87.84375 92.320312 -86.039062 99.65625 -82.4375 C 106.988281 -78.84375 112.789062 -73.742188 117.0625 -67.140625 C 121.332031 -60.535156 123.46875 -52.894531 123.46875 -44.21875 C 123.46875 -34.882812 121.128906 -26.679688 116.453125 -19.609375 C 111.785156 -12.535156 105.414062 -7.097656 97.34375 -3.296875 C 89.28125 0.503906 80.3125 2.40625 70.4375 2.40625 C 50.820312 2.40625 35.476562 -3.597656 24.40625 -15.609375 C 13.332031 -27.617188 7.796875 -44.757812 7.796875 -67.03125 C 7.796875 -82.90625 10.796875 -96.515625 16.796875 -107.859375 C 22.804688 -119.203125 31.179688 -127.804688 41.921875 -133.671875 C 52.660156 -139.546875 65.101562 -142.484375 79.25 -142.484375 C 86.71875 -142.484375 93.882812 -141.644531 100.75 -139.96875 C 107.625 -138.300781 113.460938 -135.9375 118.265625 -132.875 L 106.265625 -109.0625 C 99.328125 -113.726562 90.585938 -116.0625 80.046875 -116.0625 C 68.171875 -116.0625 58.765625 -112.59375 51.828125 -105.65625 C 44.890625 -98.71875 41.15625 -88.644531 40.625 -75.4375 C 48.894531 -83.707031 60.429688 -87.84375 75.234375 -87.84375 Z M 68.640625 -21.8125 C 75.578125 -21.8125 81.210938 -23.675781 85.546875 -27.40625 C 89.878906 -31.144531 92.046875 -36.21875 92.046875 -42.625 C 92.046875 -49.03125 89.878906 -54.132812 85.546875 -57.9375 C 81.210938 -61.738281 75.441406 -63.640625 68.234375 -63.640625 C 61.160156 -63.640625 55.359375 -61.671875 50.828125 -57.734375 C 46.296875 -53.796875 44.03125 -48.757812 44.03125 -42.625 C 44.03125 -36.488281 46.226562 -31.484375 50.625 -27.609375 C 55.03125 -23.742188 61.035156 -21.8125 68.640625 -21.8125 Z M 68.640625 -21.8125 "/></g></g></g><g fill="#000000" fill-opacity="1"><g transform="translate(250.932664, 259.124983)"><g><path d="M 55.828125 -87.453125 C 75.578125 -87.453125 90.148438 -83.515625 99.546875 -75.640625 C 108.953125 -67.765625 113.65625 -57.226562 113.65625 -44.03125 C 113.65625 -35.488281 111.519531 -27.710938 107.25 -20.703125 C 102.988281 -13.703125 96.488281 -8.097656 87.75 -3.890625 C 79.007812 0.304688 68.238281 2.40625 55.4375 2.40625 C 45.5625 2.40625 35.851562 1.101562 26.3125 -1.5 C 16.769531 -4.101562 8.664062 -7.804688 2 -12.609375 L 14.8125 -37.421875 C 20.144531 -33.421875 26.28125 -30.316406 33.21875 -28.109375 C 40.15625 -25.910156 47.289062 -24.8125 54.625 -24.8125 C 62.769531 -24.8125 69.175781 -26.410156 73.84375 -29.609375 C 78.507812 -32.816406 80.84375 -37.289062 80.84375 -43.03125 C 80.84375 -49.03125 78.40625 -53.5625 73.53125 -56.625 C 68.664062 -59.695312 60.226562 -61.234375 48.21875 -61.234375 L 12.40625 -61.234375 L 19.609375 -140.078125 L 105.0625 -140.078125 L 105.0625 -114.0625 L 46.625 -114.0625 L 44.421875 -87.453125 Z M 55.828125 -87.453125 "/></g></g></g></svg>