<svg xmlns="http://www.w3.org/2000/svg" xmlns:xlink="http://www.w3.org/1999/xlink" width="500" zoomAndPan="magnify" viewBox="0 0 375 374.999991" height="500" preserveAspectRatio="xMidYMid meet" version="1.0"><defs><g/><clipPath id="e15e029ad9"><path d="M 14 74 L 359 74 L 359 301.144531 L 14 301.144531 Z M 14 74 " clip-rule="nonzero"/></clipPath></defs><path fill="#c1ff72" d="M 199.742188 75.777344 C 199.476562 75.507812 199.207031 75.238281 198.9375 75.238281 C 197.589844 74.96875 196.246094 74.433594 194.898438 74.164062 C 191.9375 73.894531 188.976562 74.164062 186.015625 74.433594 C 184.667969 74.699219 183.59375 74.699219 182.246094 74.699219 C 180.632812 74.96875 178.746094 74.96875 177.132812 75.238281 C 174.976562 75.507812 172.824219 75.507812 170.671875 75.777344 C 166.902344 76.046875 163.402344 76.585938 159.632812 76.855469 C 159.09375 76.855469 158.554688 77.125 158.019531 77.125 C 156.402344 77.394531 154.519531 77.660156 152.902344 77.929688 C 151.019531 78.199219 149.132812 78.46875 147.25 78.738281 C 144.289062 79.546875 141.328125 80.355469 138.367188 81.429688 C 134.867188 82.507812 131.636719 83.585938 128.40625 84.660156 C 125.984375 85.46875 123.5625 86.277344 121.136719 87.085938 C 117.636719 88.429688 114.140625 90.046875 110.640625 91.660156 C 106.871094 93.277344 102.832031 95.160156 99.0625 97.042969 C 96.640625 98.121094 94.488281 99.738281 92.332031 100.8125 C 89.640625 101.890625 87.21875 103.234375 85.066406 104.851562 C 82.105469 106.734375 78.605469 108.082031 75.914062 110.234375 C 75.914062 110.234375 75.644531 110.234375 75.644531 110.503906 C 73.757812 111.582031 71.875 112.925781 70.257812 114.273438 C 68.105469 115.617188 66.222656 117.234375 64.066406 118.582031 C 62.183594 119.925781 60.570312 121.003906 58.683594 122.078125 C 58.414062 122.078125 58.414062 122.347656 58.144531 122.347656 C 56.800781 123.425781 55.453125 124.503906 54.109375 125.578125 C 53.839844 125.847656 53.300781 126.117188 53.03125 126.386719 C 52.492188 126.925781 51.683594 127.464844 51.148438 128.003906 C 49.800781 129.078125 48.453125 130.15625 47.378906 131.5 C 46.03125 132.847656 44.417969 133.925781 43.070312 135.269531 C 41.726562 136.617188 40.109375 137.960938 39.03125 139.308594 C 37.957031 140.921875 36.878906 142.539062 34.996094 143.886719 C 33.917969 143.886719 33.917969 144.421875 33.648438 144.421875 C 33.378906 144.960938 32.839844 145.5 32.304688 146.039062 C 30.957031 147.921875 29.074219 149.808594 27.726562 151.960938 C 25.84375 154.921875 23.957031 157.613281 22.613281 160.84375 C 21.265625 164.074219 19.917969 167.035156 18.574219 170.265625 C 17.765625 172.152344 16.957031 174.304688 16.6875 176.457031 C 16.421875 177.804688 15.613281 179.148438 15.613281 180.496094 C 15.613281 184.265625 14.535156 187.765625 15.074219 191.53125 C 15.074219 191.53125 15.074219 191.800781 15.074219 191.800781 C 15.34375 194.761719 15.34375 197.722656 15.613281 200.6875 C 15.882812 203.648438 16.152344 206.339844 16.957031 209.03125 C 16.957031 209.300781 16.957031 209.570312 16.957031 209.570312 C 17.226562 212.261719 17.765625 214.953125 18.574219 217.375 C 20.1875 221.953125 21.265625 226.796875 23.6875 231.375 C 24.765625 233.257812 25.304688 235.144531 26.378906 237.027344 C 28.265625 240.257812 30.148438 243.488281 32.035156 246.71875 C 32.304688 246.988281 32.570312 247.257812 32.839844 247.796875 C 33.109375 248.0625 33.378906 248.601562 33.648438 248.871094 C 34.726562 250.757812 35.800781 252.371094 37.417969 253.988281 C 38.496094 255.0625 39.03125 256.140625 39.839844 257.21875 C 42.261719 259.910156 44.417969 262.332031 46.839844 264.753906 C 47.917969 265.832031 48.992188 266.910156 50.070312 267.714844 C 51.683594 269.0625 53.300781 270.136719 54.914062 271.484375 C 58.144531 274.445312 61.914062 277.136719 65.683594 279.5625 C 70.257812 282.253906 74.835938 284.675781 79.414062 287.367188 C 80.21875 287.90625 81.296875 287.90625 82.105469 288.175781 C 83.449219 288.714844 84.796875 289.519531 86.140625 290.058594 C 87.21875 290.597656 88.566406 291.136719 89.640625 291.40625 C 90.988281 291.945312 92.332031 292.214844 93.679688 292.480469 C 98.527344 293.828125 103.101562 295.980469 107.949219 296.519531 C 110.371094 296.789062 112.792969 297.597656 115.214844 297.867188 C 117.101562 298.136719 118.984375 298.671875 120.867188 298.941406 C 122.484375 299.210938 124.097656 299.210938 125.714844 299.210938 C 128.675781 299.480469 131.367188 300.019531 134.328125 300.289062 C 136.214844 300.558594 138.097656 300.558594 140.25 300.558594 C 141.597656 300.558594 142.675781 300.289062 144.019531 300.289062 C 146.980469 300.289062 149.671875 300.828125 152.632812 300.828125 C 154.519531 300.828125 156.402344 300.558594 158.289062 300.558594 C 160.980469 300.558594 163.671875 300.558594 166.363281 300.558594 C 168.515625 300.558594 170.402344 300.289062 172.554688 300.289062 C 174.171875 300.019531 175.515625 299.75 177.132812 299.75 C 178.746094 299.75 180.363281 299.75 181.707031 298.941406 C 181.976562 298.671875 182.515625 298.941406 183.054688 298.941406 C 183.59375 298.941406 184.398438 298.941406 184.9375 299.210938 C 186.015625 299.480469 186.824219 298.671875 187.628906 298.671875 C 188.976562 298.941406 190.320312 298.40625 191.667969 298.40625 C 192.476562 298.40625 193.550781 298.671875 194.359375 298.40625 C 196.511719 298.136719 198.667969 297.867188 200.820312 297.328125 C 202.972656 297.058594 205.398438 296.519531 207.550781 296.25 C 209.164062 295.980469 210.78125 295.710938 212.394531 295.441406 C 213.203125 295.175781 214.28125 294.636719 215.089844 294.636719 C 216.703125 294.636719 218.320312 294.636719 219.933594 294.097656 C 221.550781 293.558594 223.164062 293.289062 225.046875 292.75 C 225.855469 292.480469 226.933594 292.214844 228.007812 292.214844 C 230.703125 291.675781 233.394531 291.136719 236.085938 290.867188 C 236.355469 290.867188 236.355469 290.867188 236.625 290.597656 C 237.96875 289.789062 239.316406 289.25 240.929688 288.984375 C 242.007812 288.714844 242.816406 288.714844 243.890625 288.445312 C 247.121094 287.367188 250.351562 286.289062 253.582031 285.214844 C 257.351562 284.136719 260.851562 282.253906 264.890625 281.175781 C 266.773438 280.636719 268.660156 280.097656 270.542969 279.292969 C 271.621094 278.753906 272.964844 278.484375 274.042969 277.945312 C 277.542969 276.332031 281.042969 274.714844 284.808594 272.832031 C 286.425781 272.023438 287.773438 271.214844 289.386719 270.40625 C 292.347656 268.792969 295.308594 267.445312 298.539062 265.832031 C 300.15625 265.023438 301.5 264.484375 303.117188 263.679688 C 305.269531 262.601562 307.421875 261.523438 309.578125 260.449219 C 311.460938 259.371094 313.078125 258.023438 315.230469 257.21875 C 316.039062 256.949219 316.574219 256.410156 317.113281 255.871094 C 317.921875 255.332031 319 254.523438 319.804688 253.988281 C 321.421875 252.910156 323.035156 251.832031 324.652344 250.757812 C 326.535156 249.410156 328.152344 247.796875 330.035156 246.449219 C 332.457031 244.566406 334.882812 242.679688 337.035156 240.527344 C 339.726562 237.835938 341.878906 234.875 344.574219 232.449219 C 344.839844 232.183594 345.109375 231.914062 345.378906 231.375 C 345.917969 230.566406 346.457031 229.488281 347.265625 228.683594 C 349.417969 226.527344 351.03125 223.835938 352.648438 221.414062 C 353.996094 219.53125 354.800781 217.105469 355.609375 214.953125 C 356.6875 212.53125 356.957031 210.109375 358.300781 207.953125 C 358.570312 207.683594 358.570312 207.414062 358.570312 207.144531 C 359.109375 203.648438 359.378906 199.878906 359.917969 196.378906 C 360.457031 192.878906 359.917969 189.648438 359.917969 186.148438 C 359.917969 183.457031 359.109375 180.496094 358.839844 177.804688 C 358.839844 177.535156 358.570312 176.996094 358.570312 176.726562 C 357.761719 175.382812 357.761719 173.765625 357.761719 172.152344 C 357.761719 171.613281 357.492188 171.074219 357.492188 170.804688 C 356.957031 169.726562 356.148438 168.652344 356.148438 167.304688 C 356.148438 167.035156 356.148438 166.765625 355.878906 166.496094 C 355.070312 165.421875 354.800781 164.34375 354.261719 162.996094 C 352.917969 160.574219 351.570312 158.152344 350.226562 155.730469 C 349.417969 154.113281 348.339844 152.769531 347.535156 150.882812 C 346.996094 149.539062 346.1875 148.460938 345.378906 147.382812 C 344.304688 145.769531 342.417969 144.152344 341.878906 142 C 341.878906 141.730469 341.34375 141.460938 341.34375 141.460938 C 341.074219 141.191406 340.804688 141.191406 340.804688 141.191406 C 339.457031 139.578125 338.113281 137.960938 336.496094 136.078125 C 333.265625 132.578125 330.304688 129.078125 326.804688 125.847656 C 326.535156 125.578125 326.265625 125.308594 325.996094 125.042969 C 324.921875 123.964844 323.84375 122.886719 322.5 122.078125 C 320.34375 120.195312 317.921875 118.3125 315.5 116.425781 C 313.882812 115.082031 312 113.734375 310.382812 112.390625 C 310.113281 112.390625 310.113281 112.121094 309.847656 112.121094 C 308.5 111.3125 306.882812 110.503906 305.539062 109.425781 C 303.921875 108.351562 302.578125 107.273438 300.960938 106.195312 C 300.15625 105.660156 299.347656 105.121094 298.539062 104.582031 C 296.65625 103.503906 294.769531 102.699219 292.886719 101.621094 C 291.003906 100.542969 289.117188 99.738281 287.234375 98.929688 C 282.117188 98.121094 278.617188 96.238281 274.851562 94.890625 C 271.082031 93.542969 267.042969 92.199219 263.273438 91.121094 C 259.238281 90.046875 255.46875 88.96875 251.429688 88.429688 C 246.585938 87.621094 242.007812 86.546875 237.164062 86.007812 C 234.46875 85.738281 231.507812 85.46875 228.816406 85.199219 C 226.664062 84.929688 224.78125 84.660156 222.894531 84.929688 C 222.355469 84.929688 221.816406 84.929688 221.28125 84.929688 C 218.050781 84.929688 214.820312 84.660156 211.589844 84.660156 C 209.703125 84.660156 208.089844 84.660156 206.472656 85.738281 C 204.589844 84.660156 204.320312 84.660156 202.707031 84.929688 C 201.628906 85.199219 200.28125 85.199219 199.207031 84.929688 C 198.398438 84.660156 197.320312 84.929688 196.511719 85.199219 C 196.246094 85.199219 195.707031 85.46875 195.4375 85.46875 C 194.628906 85.46875 193.820312 85.46875 193.28125 85.738281 C 192.746094 85.738281 191.9375 86.007812 191.398438 86.007812 C 188.4375 85.738281 185.476562 86.007812 182.515625 86.277344 C 181.707031 86.277344 180.632812 86.277344 179.824219 86.546875 C 176.863281 87.085938 173.902344 87.890625 170.671875 87.621094 C 169.59375 87.621094 168.515625 87.351562 167.441406 87.890625 C 167.171875 87.890625 166.902344 87.890625 166.632812 87.890625 C 166.363281 87.890625 165.824219 87.890625 165.554688 87.890625 C 164.75 88.699219 163.402344 88.699219 162.324219 88.96875 C 161.519531 89.238281 160.980469 89.238281 160.171875 89.777344 C 160.171875 90.046875 159.363281 90.3125 159.09375 90.3125 C 157.480469 90.046875 156.402344 90.851562 155.058594 91.390625 C 153.441406 91.929688 153.441406 92.199219 154.519531 93.542969 C 154.519531 93.542969 154.519531 93.8125 154.519531 93.8125 C 153.710938 94.082031 153.171875 94.621094 152.363281 94.890625 C 152.632812 95.160156 152.902344 95.429688 153.171875 95.429688 C 154.519531 95.160156 155.59375 94.890625 156.941406 94.621094 C 157.210938 94.621094 157.480469 94.351562 157.75 94.351562 C 159.363281 94.351562 160.980469 94.082031 162.324219 94.082031 C 163.132812 94.082031 163.671875 93.8125 163.671875 93.007812 C 163.671875 92.199219 164.210938 92.199219 164.75 92.199219 C 165.285156 92.199219 165.824219 92.199219 166.363281 92.199219 C 166.363281 92.738281 166.09375 93.007812 166.09375 93.542969 C 167.710938 93.8125 169.054688 94.082031 170.402344 93.007812 C 170.132812 92.738281 169.863281 92.199219 169.59375 91.929688 C 170.671875 91.660156 171.476562 91.390625 172.015625 92.46875 C 172.554688 93.277344 173.363281 93.542969 174.171875 93.542969 C 176.324219 93.007812 178.207031 92.738281 180.363281 92.738281 C 183.859375 92.46875 187.089844 92.199219 190.589844 91.929688 C 193.820312 91.660156 197.050781 91.660156 200.28125 91.660156 C 205.667969 91.390625 211.320312 91.390625 216.703125 91.929688 C 219.125 92.199219 221.816406 92.199219 224.242188 92.46875 C 224.78125 92.46875 225.585938 92.46875 226.125 92.46875 C 226.664062 92.46875 227.203125 92.46875 227.742188 92.46875 C 228.816406 92.46875 229.894531 92.738281 230.972656 92.738281 C 231.777344 92.738281 232.585938 92.738281 233.394531 93.007812 C 235.546875 92.738281 237.433594 93.007812 239.585938 93.277344 C 240.660156 93.277344 241.738281 93.542969 242.546875 93.542969 C 245.238281 94.082031 247.660156 94.890625 250.351562 95.429688 C 252.777344 95.96875 255.46875 96.238281 257.890625 97.042969 C 260.042969 97.851562 262.46875 98.121094 264.890625 98.929688 C 268.121094 100.003906 271.351562 101.082031 274.582031 102.160156 C 276.464844 102.699219 278.082031 103.503906 279.964844 104.042969 C 281.3125 104.582031 282.65625 105.390625 284.273438 106.195312 C 286.425781 107.003906 288.578125 108.082031 290.464844 109.160156 C 291.539062 109.964844 292.886719 110.503906 294.234375 111.042969 C 295.847656 111.851562 297.460938 112.386719 299.078125 113.734375 C 299.886719 114.542969 300.960938 115.082031 301.769531 115.617188 C 303.117188 116.425781 304.730469 117.234375 306.078125 118.3125 C 308.5 120.195312 311.460938 121.542969 313.34375 123.964844 C 315.769531 125.847656 318.191406 127.195312 320.074219 129.347656 C 321.960938 131.5 324.382812 133.386719 326.265625 135.269531 C 327.34375 136.347656 328.152344 137.425781 329.226562 138.5 C 331.113281 140.117188 332.726562 142 334.074219 144.152344 C 335.6875 146.039062 337.574219 147.921875 338.382812 150.34375 C 340.265625 151.960938 340.535156 154.382812 342.417969 156 C 344.035156 158.960938 345.648438 161.652344 346.996094 164.613281 C 347.804688 166.496094 348.609375 168.382812 349.148438 170.265625 C 349.417969 171.074219 349.6875 171.882812 349.957031 172.957031 C 350.496094 174.574219 351.035156 175.917969 351.300781 177.535156 C 351.570312 178.613281 351.570312 179.6875 351.839844 180.765625 C 352.109375 182.917969 352.648438 185.070312 352.378906 187.226562 C 352.378906 188.570312 352.109375 190.1875 352.109375 191.53125 C 352.378906 194.226562 351.570312 196.917969 351.300781 199.609375 C 350.765625 203.109375 349.6875 206.339844 348.339844 209.570312 C 346.457031 214.144531 344.304688 218.183594 341.34375 221.953125 C 340.804688 222.761719 339.996094 223.296875 339.457031 224.375 C 338.382812 226.257812 336.765625 228.144531 335.152344 229.757812 C 333.804688 231.375 332.1875 232.71875 330.574219 234.335938 C 330.304688 234.605469 330.035156 234.875 330.035156 235.144531 C 329.765625 235.949219 328.960938 236.757812 328.152344 237.027344 C 326.804688 237.566406 325.996094 238.375 325.191406 239.179688 C 324.652344 239.449219 324.382812 239.988281 323.84375 240.257812 C 322.765625 241.066406 321.691406 241.871094 320.613281 242.679688 C 319.535156 243.488281 318.460938 244.566406 317.382812 245.371094 C 315.230469 246.71875 313.078125 247.796875 311.191406 249.679688 C 310.652344 250.21875 310.113281 250.757812 309.578125 251.027344 C 307.421875 251.5625 305.808594 253.179688 303.921875 254.257812 C 303.386719 254.523438 302.847656 254.523438 302.578125 254.792969 C 301.230469 256.410156 298.808594 256.679688 297.195312 258.023438 C 295.308594 259.371094 292.617188 259.640625 290.734375 261.523438 C 290.734375 261.523438 290.464844 261.523438 290.464844 261.792969 C 289.386719 262.332031 288.308594 262.601562 287.503906 263.140625 C 286.695312 263.679688 285.886719 264.214844 285.078125 264.484375 C 283.464844 265.292969 281.847656 265.832031 279.964844 266.640625 C 278.351562 267.445312 276.734375 267.984375 275.121094 268.523438 C 274.3125 268.792969 273.773438 269.332031 273.234375 269.601562 C 270.273438 270.675781 267.851562 272.292969 264.890625 273.101562 C 262.734375 273.636719 260.582031 274.984375 258.160156 275.253906 C 257.890625 275.253906 257.890625 275.253906 257.621094 275.523438 C 256.007812 276.0625 254.660156 276.867188 253.046875 277.40625 C 252.507812 277.675781 251.699219 277.945312 250.890625 277.945312 C 249.277344 278.484375 247.660156 278.753906 246.316406 279.292969 C 244.699219 279.828125 242.816406 280.367188 241.199219 281.175781 C 239.855469 281.714844 238.238281 281.984375 236.894531 282.523438 C 235.277344 283.058594 233.664062 283.597656 232.046875 284.136719 C 228.816406 284.945312 225.855469 285.484375 222.625 286.289062 C 220.742188 286.828125 218.585938 287.097656 216.703125 287.636719 C 215.089844 287.90625 213.742188 287.90625 212.128906 288.445312 C 210.511719 288.984375 208.898438 289.25 207.28125 289.25 C 205.667969 289.519531 204.320312 289.519531 202.972656 290.328125 C 202.707031 290.328125 202.4375 290.597656 202.167969 290.597656 C 199.207031 290.597656 196.246094 291.40625 193.550781 291.675781 C 191.667969 291.945312 190.054688 292.214844 188.167969 292.214844 C 187.089844 292.214844 185.746094 292.214844 184.667969 292.214844 C 181.707031 292.480469 178.746094 292.75 175.785156 293.019531 C 173.632812 293.289062 171.210938 293.289062 169.054688 293.558594 C 165.824219 293.828125 162.324219 294.097656 159.09375 294.097656 C 156.671875 294.097656 153.980469 294.097656 151.558594 294.097656 C 148.597656 294.097656 145.90625 294.097656 142.941406 294.097656 C 140.519531 294.097656 138.367188 293.828125 135.945312 293.828125 C 133.519531 293.558594 131.097656 293.558594 128.675781 293.289062 C 126.792969 293.019531 124.636719 292.75 122.753906 292.480469 C 121.40625 292.214844 120.332031 292.214844 118.984375 291.945312 C 115.484375 291.40625 111.714844 290.597656 108.214844 290.058594 C 107.410156 289.789062 106.601562 289.789062 106.0625 289.519531 C 103.910156 288.984375 101.757812 288.445312 99.601562 287.90625 C 96.101562 286.828125 92.601562 285.753906 88.835938 284.675781 C 88.296875 284.40625 87.488281 284.136719 86.949219 283.867188 C 84.796875 283.058594 82.910156 282.253906 80.757812 281.445312 C 79.414062 280.90625 78.066406 280.097656 76.71875 279.292969 C 74.835938 278.214844 73.222656 276.867188 71.066406 276.0625 C 68.644531 275.253906 67.03125 272.832031 64.335938 272.292969 C 64.335938 272.292969 64.066406 272.292969 64.066406 272.023438 C 62.992188 271.214844 61.914062 270.40625 60.570312 269.332031 C 58.144531 267.175781 55.722656 265.292969 53.03125 263.140625 C 51.953125 262.332031 51.148438 261.253906 50.070312 260.449219 C 49.261719 259.640625 48.453125 258.832031 47.648438 258.023438 C 46.839844 256.949219 45.761719 256.140625 44.957031 255.0625 C 44.417969 254.523438 43.878906 254.257812 43.609375 253.71875 C 41.457031 251.027344 39.570312 248.601562 37.417969 245.910156 C 36.070312 244.296875 34.996094 242.410156 33.917969 240.527344 C 32.304688 237.835938 30.957031 234.875 29.609375 231.914062 C 29.609375 231.644531 29.339844 231.375 29.339844 231.105469 C 29.074219 229.21875 27.996094 227.605469 27.457031 225.722656 C 26.917969 223.566406 26.109375 221.683594 25.304688 219.53125 C 24.765625 217.375 23.957031 215.222656 23.6875 212.800781 C 23.417969 210.914062 22.882812 209.03125 22.882812 207.144531 C 22.613281 203.648438 22.34375 200.417969 22.34375 196.917969 C 22.34375 193.957031 22.34375 191.261719 22.613281 188.300781 C 22.882812 183.996094 24.226562 179.6875 25.574219 175.382812 C 26.378906 172.957031 27.457031 170.804688 28.535156 168.382812 C 29.074219 167.035156 29.878906 165.691406 30.6875 164.34375 C 31.765625 162.730469 32.570312 160.84375 33.648438 159.230469 C 34.457031 157.882812 35.535156 156.539062 36.609375 155.191406 C 37.417969 154.382812 37.957031 153.039062 38.761719 152.5 C 40.378906 151.421875 41.1875 149.808594 42.53125 148.460938 C 43.878906 147.113281 44.957031 145.5 46.300781 143.886719 C 47.917969 142 50.070312 140.386719 51.683594 138.769531 C 53.03125 137.425781 54.378906 136.347656 55.722656 135.269531 C 56.800781 134.195312 57.875 133.117188 59.222656 132.308594 C 59.761719 132.039062 60.03125 131.5 60.570312 131.234375 C 61.105469 130.695312 61.644531 130.425781 62.183594 129.886719 C 62.722656 129.617188 63.261719 129.078125 63.800781 128.808594 C 64.335938 128.269531 64.875 127.734375 65.414062 127.195312 C 68.644531 125.039062 71.335938 122.617188 74.566406 121.003906 C 75.105469 120.734375 75.644531 120.195312 76.183594 119.65625 C 76.71875 119.386719 77.257812 118.847656 77.796875 118.582031 C 80.488281 116.964844 83.179688 115.617188 85.605469 113.734375 C 87.21875 112.65625 88.835938 111.042969 90.988281 110.503906 C 91.257812 110.503906 91.257812 110.234375 91.257812 110.234375 C 93.410156 108.890625 95.832031 107.8125 97.988281 106.464844 C 99.0625 105.929688 100.410156 105.121094 101.488281 104.582031 C 102.832031 104.042969 103.910156 103.503906 105.253906 102.964844 C 108.214844 101.621094 110.910156 100.273438 113.871094 98.929688 C 117.101562 97.3125 119.253906 96.238281 121.675781 95.429688 C 123.832031 94.621094 126.253906 93.8125 128.40625 93.007812 C 129.753906 92.46875 131.367188 91.929688 132.714844 91.390625 C 135.675781 90.3125 138.636719 89.238281 141.867188 88.429688 C 145.367188 87.351562 148.867188 86.816406 152.363281 86.007812 C 153.710938 85.738281 155.058594 85.46875 156.671875 85.199219 C 157.480469 84.929688 158.558594 84.660156 159.363281 84.660156 C 160.171875 84.660156 160.710938 84.390625 161.519531 84.121094 C 163.941406 83.855469 166.09375 83.316406 168.515625 83.046875 C 169.59375 83.046875 170.402344 82.777344 171.476562 82.777344 C 172.554688 82.777344 173.632812 82.507812 174.707031 82.507812 C 175.785156 82.238281 177.132812 81.96875 178.207031 81.699219 C 181.976562 81.160156 186.015625 80.890625 189.785156 80.355469 C 190.859375 80.355469 191.9375 80.085938 193.015625 80.085938 C 193.015625 78.738281 193.015625 78.738281 194.089844 78.46875 C 194.898438 78.46875 195.4375 78.46875 196.246094 78.199219 C 196.78125 77.929688 197.320312 77.660156 197.859375 77.394531 C 198.398438 76.855469 198.9375 76.316406 199.742188 75.777344 Z M 199.742188 75.777344 " fill-opacity="1" fill-rule="nonzero"/><g clip-path="url(#e15e029ad9)"><path fill="#c1ff72" d="M 199.742188 75.777344 C 198.9375 76.585938 198.667969 77.125 198.128906 77.660156 C 197.589844 77.929688 197.050781 78.199219 196.511719 78.46875 C 195.707031 78.738281 195.167969 78.738281 194.359375 78.738281 C 193.28125 79.007812 193.28125 79.007812 193.28125 80.355469 C 192.207031 80.355469 191.128906 80.625 190.054688 80.625 C 186.285156 81.160156 182.246094 81.429688 178.476562 81.96875 C 177.132812 82.238281 176.054688 82.507812 174.976562 82.777344 C 173.902344 83.046875 172.824219 83.046875 171.746094 83.046875 C 170.671875 83.046875 169.863281 83.316406 168.785156 83.316406 C 166.363281 83.585938 164.210938 83.855469 161.785156 84.390625 C 160.980469 84.390625 160.441406 84.660156 159.632812 84.929688 C 158.558594 84.660156 157.480469 84.929688 156.671875 84.929688 C 155.328125 85.199219 153.980469 85.46875 152.363281 85.738281 C 148.867188 86.546875 145.367188 87.351562 141.867188 88.160156 C 138.90625 88.96875 135.675781 90.046875 132.714844 91.121094 C 131.367188 91.660156 129.753906 92.199219 128.40625 92.738281 C 126.253906 93.542969 123.832031 94.351562 121.675781 95.160156 C 119.253906 96.238281 116.832031 97.042969 114.40625 98.121094 C 111.445312 99.46875 108.753906 100.8125 105.792969 102.160156 C 104.449219 102.699219 103.371094 103.234375 102.023438 103.773438 C 100.679688 104.3125 99.601562 105.121094 98.527344 105.660156 C 96.371094 107.003906 93.949219 108.082031 91.796875 109.425781 C 91.796875 109.425781 91.527344 109.695312 91.527344 109.695312 C 89.371094 110.234375 88.027344 111.851562 86.140625 112.925781 C 83.71875 114.542969 81.027344 116.15625 78.335938 117.773438 C 77.796875 118.042969 77.257812 118.582031 76.71875 118.847656 C 76.183594 119.386719 75.644531 119.65625 75.105469 120.195312 C 71.875 121.8125 68.914062 124.503906 65.953125 126.386719 C 65.414062 126.925781 64.875 127.464844 64.335938 128.003906 C 63.800781 128.539062 63.261719 128.808594 62.722656 129.078125 C 62.183594 129.617188 61.644531 129.886719 61.105469 130.425781 C 60.570312 130.695312 60.300781 131.234375 59.761719 131.5 C 58.414062 132.308594 57.339844 133.386719 56.261719 134.460938 C 54.914062 135.539062 53.570312 136.886719 52.222656 137.960938 C 50.339844 139.578125 48.453125 141.191406 46.839844 143.078125 C 45.492188 144.421875 44.417969 146.308594 43.070312 147.652344 C 41.457031 149.269531 40.378906 150.882812 39.03125 151.960938 C 38.226562 152.769531 37.6875 153.84375 36.878906 154.652344 C 35.800781 156 34.726562 157.34375 33.917969 158.691406 C 32.839844 160.304688 31.765625 162.191406 30.957031 163.804688 C 30.148438 165.152344 29.339844 166.496094 28.804688 167.84375 C 27.726562 170.265625 26.648438 172.417969 25.84375 174.84375 C 24.496094 179.148438 23.417969 183.457031 22.878906 187.765625 C 22.613281 190.726562 22.613281 193.417969 22.613281 196.378906 C 22.613281 199.878906 22.878906 203.109375 23.148438 206.609375 C 23.417969 208.492188 23.957031 210.375 23.957031 212.261719 C 24.226562 214.414062 25.035156 216.835938 25.574219 218.992188 C 26.109375 221.144531 26.917969 223.027344 27.726562 225.183594 C 28.265625 227.066406 29.609375 228.683594 29.609375 230.566406 C 29.609375 230.835938 29.878906 231.105469 29.878906 231.375 C 31.226562 234.335938 32.839844 237.027344 34.1875 239.988281 C 35.265625 241.871094 36.339844 243.757812 37.6875 245.371094 C 39.570312 248.0625 41.726562 250.757812 43.878906 253.179688 C 44.417969 253.71875 44.6875 254.257812 45.222656 254.523438 C 46.03125 255.601562 47.109375 256.410156 47.917969 257.488281 C 48.722656 258.292969 49.53125 259.101562 50.339844 259.910156 C 51.414062 260.714844 52.222656 261.792969 53.300781 262.601562 C 55.722656 264.753906 58.144531 266.640625 60.835938 268.792969 C 61.914062 269.601562 62.992188 270.675781 64.335938 271.484375 C 64.335938 271.484375 64.605469 271.753906 64.605469 271.753906 C 67.03125 272.5625 68.914062 274.714844 71.335938 275.523438 C 73.222656 276.332031 75.105469 277.675781 76.988281 278.753906 C 78.335938 279.5625 79.679688 280.367188 81.027344 280.90625 C 82.910156 281.714844 85.066406 282.523438 87.21875 283.328125 C 87.757812 283.597656 88.566406 284.136719 89.105469 284.136719 C 92.601562 285.214844 96.101562 286.289062 99.871094 287.367188 C 102.023438 287.90625 104.179688 288.445312 106.332031 288.984375 C 107.140625 289.25 107.949219 289.25 108.484375 289.519531 C 111.984375 290.328125 115.753906 290.867188 119.253906 291.40625 C 120.332031 291.675781 121.675781 291.675781 123.023438 291.945312 C 124.90625 292.210938 127.058594 292.480469 128.945312 292.75 C 131.367188 293.019531 133.789062 293.289062 136.214844 293.289062 C 138.636719 293.558594 140.789062 293.558594 143.210938 293.558594 C 146.171875 293.558594 148.867188 293.558594 151.828125 293.558594 C 154.25 293.558594 156.941406 293.558594 159.363281 293.558594 C 162.59375 293.558594 166.09375 293.289062 169.324219 293.019531 C 171.476562 292.75 173.902344 292.75 176.054688 292.480469 C 179.015625 292.214844 181.976562 291.945312 184.9375 291.675781 C 186.015625 291.675781 187.359375 291.675781 188.4375 291.675781 C 190.320312 291.40625 191.9375 291.40625 193.820312 291.136719 C 196.78125 290.867188 199.476562 290.058594 202.4375 290.058594 C 202.707031 290.058594 202.972656 290.058594 203.242188 289.789062 C 204.589844 289.25 205.933594 288.984375 207.550781 288.714844 C 209.164062 288.445312 210.78125 288.445312 212.394531 287.90625 C 213.742188 287.367188 215.355469 287.367188 216.972656 287.097656 C 218.855469 286.828125 221.011719 286.289062 222.894531 285.753906 C 226.125 284.945312 229.085938 284.40625 232.316406 283.597656 C 233.933594 283.058594 235.546875 282.523438 237.164062 281.984375 C 238.507812 281.445312 240.125 281.175781 241.46875 280.636719 C 243.085938 280.097656 244.96875 279.5625 246.585938 278.753906 C 248.199219 278.214844 249.546875 277.675781 251.160156 277.40625 C 251.96875 277.136719 252.507812 277.136719 253.3125 276.867188 C 254.929688 276.332031 256.277344 275.523438 257.890625 274.984375 C 258.160156 274.984375 258.160156 274.714844 258.429688 274.714844 C 260.851562 274.445312 262.734375 273.101562 265.160156 272.5625 C 268.121094 271.753906 270.8125 270.136719 273.503906 269.0625 C 274.3125 268.792969 274.851562 268.253906 275.386719 267.984375 C 277.003906 267.175781 278.617188 266.640625 280.234375 266.101562 C 281.847656 265.292969 283.734375 264.753906 285.347656 263.945312 C 286.15625 263.679688 286.964844 263.140625 287.773438 262.601562 C 288.847656 262.0625 289.925781 261.792969 290.734375 261.253906 C 290.734375 261.253906 291.003906 261.253906 291.003906 260.984375 C 292.617188 259.101562 295.308594 258.832031 297.460938 257.484375 C 299.078125 256.410156 301.230469 255.871094 302.847656 254.257812 C 303.117188 253.988281 303.65625 253.988281 304.191406 253.71875 C 306.078125 252.910156 307.691406 251.292969 309.847656 250.488281 C 310.382812 250.21875 310.921875 249.679688 311.460938 249.140625 C 313.34375 247.527344 315.5 246.449219 317.652344 244.835938 C 318.730469 244.027344 319.804688 242.949219 320.882812 242.140625 C 321.960938 241.335938 323.035156 240.527344 324.113281 239.71875 C 324.652344 239.449219 324.921875 238.910156 325.460938 238.640625 C 326.535156 237.835938 327.34375 236.757812 328.421875 236.488281 C 329.226562 236.21875 330.035156 235.679688 330.304688 234.605469 C 330.304688 234.335938 330.574219 234.066406 330.84375 233.796875 C 332.457031 232.183594 333.804688 230.835938 335.417969 229.21875 C 337.035156 227.605469 338.378906 225.988281 339.726562 223.835938 C 340.265625 223.027344 341.074219 222.222656 341.609375 221.414062 C 344.574219 217.644531 346.996094 213.605469 348.609375 209.03125 C 349.957031 205.800781 351.03125 202.570312 351.570312 199.070312 C 352.109375 196.378906 352.648438 193.6875 352.378906 190.996094 C 352.378906 189.648438 352.378906 188.300781 352.648438 186.6875 C 352.917969 184.535156 352.378906 182.378906 352.109375 180.226562 C 351.839844 179.148438 351.839844 178.074219 351.570312 176.996094 C 351.300781 175.382812 350.496094 174.035156 350.226562 172.417969 C 349.957031 171.613281 349.6875 170.535156 349.417969 169.726562 C 348.609375 167.84375 348.070312 165.960938 347.265625 164.074219 C 345.917969 161.113281 344.035156 158.421875 342.6875 155.460938 C 341.074219 153.84375 340.535156 151.421875 338.648438 149.808594 C 337.84375 147.382812 335.957031 145.5 334.34375 143.617188 C 332.726562 141.730469 331.382812 139.578125 329.496094 137.960938 C 328.421875 137.15625 327.613281 135.808594 326.535156 134.730469 C 324.382812 132.847656 322.230469 130.964844 320.34375 128.808594 C 318.191406 126.65625 315.769531 125.039062 313.613281 123.425781 C 311.460938 121.003906 308.769531 119.65625 306.347656 117.773438 C 305 116.695312 303.386719 115.886719 302.039062 115.082031 C 301.230469 114.542969 300.15625 114.003906 299.347656 113.195312 C 298 111.851562 296.386719 111.3125 294.5 110.503906 C 293.15625 109.964844 292.078125 109.425781 290.734375 108.621094 C 288.847656 107.273438 286.695312 106.464844 284.542969 105.660156 C 283.195312 105.121094 281.847656 104.3125 280.234375 103.503906 C 278.617188 102.699219 276.734375 102.160156 274.851562 101.621094 C 271.621094 100.542969 268.390625 99.46875 265.160156 98.390625 C 262.46875 98.121094 260.042969 97.851562 257.621094 97.042969 C 255.199219 96.238281 252.777344 95.96875 250.082031 95.429688 C 247.390625 94.890625 244.96875 94.082031 242.277344 93.542969 C 241.199219 93.277344 240.125 93.277344 239.316406 93.277344 C 237.433594 93.007812 235.546875 92.738281 233.664062 92.738281 C 232.855469 92.738281 232.046875 92.738281 231.238281 92.46875 C 230.164062 92.46875 229.085938 92.199219 228.007812 92.199219 C 227.472656 92.199219 226.933594 92.199219 226.394531 92.199219 C 225.855469 92.199219 225.046875 92.199219 224.511719 92.199219 C 222.085938 91.929688 219.394531 91.929688 216.972656 91.660156 C 211.589844 91.390625 205.933594 91.390625 200.550781 91.390625 C 197.320312 91.390625 194.089844 91.390625 190.859375 91.660156 C 187.089844 91.929688 183.859375 92.199219 180.363281 92.738281 C 178.207031 92.738281 176.324219 93.007812 174.171875 93.007812 C 173.363281 93.007812 172.285156 92.738281 172.015625 91.929688 C 171.476562 90.851562 170.671875 91.390625 169.59375 91.390625 C 169.863281 91.929688 170.132812 92.199219 170.402344 92.46875 C 169.054688 93.542969 167.710938 93.542969 166.09375 93.007812 C 166.09375 92.46875 166.363281 92.199219 166.363281 91.660156 C 165.824219 91.660156 165.285156 91.660156 164.75 91.660156 C 164.210938 91.660156 163.671875 91.929688 163.671875 92.46875 C 163.671875 93.277344 163.132812 93.542969 162.324219 93.542969 C 160.710938 93.542969 159.09375 93.8125 157.75 93.8125 C 157.480469 93.8125 157.210938 94.082031 156.941406 94.082031 C 155.328125 94.890625 154.25 95.429688 152.902344 95.429688 C 152.632812 95.429688 152.363281 95.160156 152.097656 94.890625 C 152.902344 94.351562 153.710938 94.082031 154.25 93.8125 C 154.25 93.542969 154.25 93.542969 154.25 93.542969 C 153.441406 91.929688 153.441406 91.929688 154.789062 91.390625 C 156.132812 90.851562 157.480469 90.3125 158.824219 90.3125 C 159.363281 90.3125 159.902344 90.046875 160.171875 89.777344 C 160.710938 89.238281 161.519531 88.96875 162.324219 88.96875 C 163.402344 88.699219 164.480469 88.699219 165.554688 87.890625 C 165.824219 87.621094 166.363281 87.890625 166.632812 87.890625 C 166.902344 87.890625 167.441406 88.160156 167.441406 87.890625 C 168.515625 87.085938 169.59375 87.351562 170.671875 87.351562 C 173.902344 87.621094 176.59375 86.546875 179.824219 86.277344 C 180.632812 86.007812 181.707031 86.277344 182.515625 86.007812 C 185.476562 85.738281 188.4375 85.46875 191.398438 85.738281 C 191.9375 85.738281 192.476562 85.46875 193.28125 85.46875 C 194.089844 85.46875 194.898438 85.46875 195.4375 85.199219 C 195.707031 85.199219 196.246094 84.929688 196.511719 84.929688 C 197.320312 84.929688 198.398438 84.660156 199.207031 84.660156 C 200.28125 84.929688 201.628906 84.929688 202.707031 84.660156 C 204.320312 84.660156 204.589844 84.660156 206.472656 85.738281 C 207.820312 84.660156 209.703125 84.390625 211.589844 84.660156 C 214.820312 84.660156 218.050781 84.929688 221.28125 85.199219 C 221.816406 85.199219 222.355469 85.199219 222.894531 85.199219 C 224.78125 84.929688 226.664062 85.199219 228.816406 85.46875 C 231.507812 85.738281 234.46875 86.007812 237.164062 86.277344 C 242.007812 86.546875 246.585938 87.890625 251.429688 88.699219 C 255.46875 89.507812 259.507812 90.3125 263.273438 91.390625 C 267.3125 92.46875 271.082031 93.8125 274.851562 95.160156 C 278.617188 96.507812 282.117188 98.390625 285.886719 100.003906 C 287.773438 100.8125 289.65625 101.890625 291.539062 102.699219 C 293.425781 103.773438 295.308594 104.582031 297.195312 105.660156 C 298 106.195312 298.808594 106.734375 299.617188 107.273438 C 301.230469 108.351562 302.578125 109.425781 304.191406 110.503906 C 305.539062 111.3125 307.152344 112.121094 308.5 113.195312 C 308.769531 113.195312 308.769531 113.464844 309.039062 113.464844 C 310.652344 114.8125 312.539062 116.15625 314.152344 117.503906 C 316.574219 119.386719 318.730469 121.273438 321.152344 123.15625 C 322.230469 124.234375 323.304688 125.308594 324.652344 126.117188 C 324.921875 126.386719 325.191406 126.65625 325.460938 126.925781 C 328.957031 129.886719 332.1875 133.65625 335.152344 137.15625 C 336.496094 138.769531 338.113281 140.386719 339.457031 142.269531 C 339.726562 142.539062 339.996094 142.539062 339.996094 142.539062 C 340.265625 142.808594 340.535156 142.808594 340.535156 143.078125 C 341.074219 145.230469 342.957031 146.578125 344.035156 148.460938 C 344.839844 149.539062 345.648438 150.613281 346.1875 151.960938 C 346.996094 153.574219 348.070312 155.191406 348.878906 156.804688 C 350.226562 159.230469 351.570312 161.652344 352.917969 164.074219 C 353.457031 165.152344 353.726562 166.496094 354.53125 167.574219 C 354.800781 167.84375 354.800781 168.113281 354.800781 168.382812 C 354.800781 169.726562 355.339844 170.804688 356.148438 171.882812 C 356.417969 172.417969 356.417969 172.6875 356.417969 173.226562 C 356.417969 174.84375 356.6875 176.1875 357.226562 177.804688 C 357.492188 178.074219 357.492188 178.34375 357.492188 178.878906 C 358.03125 181.574219 358.570312 184.535156 358.570312 187.226562 C 358.570312 190.726562 359.109375 193.957031 358.570312 197.457031 C 358.03125 200.953125 357.761719 204.722656 357.226562 208.222656 C 357.226562 208.492188 357.226562 208.761719 356.957031 209.03125 C 355.609375 211.183594 355.070312 213.875 354.261719 216.03125 C 353.457031 218.183594 352.648438 220.605469 351.300781 222.492188 C 349.6875 224.914062 348.070312 227.605469 345.917969 229.757812 C 345.109375 230.566406 344.574219 231.644531 344.035156 232.449219 C 343.765625 232.71875 343.496094 233.257812 343.226562 233.527344 C 340.535156 235.949219 338.382812 238.910156 335.6875 241.605469 C 333.535156 243.757812 331.113281 245.640625 328.691406 247.527344 C 326.804688 248.871094 325.191406 250.488281 323.304688 251.832031 C 321.691406 252.910156 320.074219 253.988281 318.460938 255.0625 C 317.652344 255.601562 316.574219 256.410156 315.769531 256.949219 C 315.230469 257.484375 314.421875 258.023438 313.882812 258.292969 C 311.730469 259.101562 310.113281 260.449219 308.230469 261.523438 C 306.078125 262.601562 303.921875 263.679688 301.769531 264.753906 C 300.15625 265.5625 298.808594 266.101562 297.195312 266.910156 C 294.230469 268.253906 291.269531 269.871094 288.039062 271.484375 C 286.425781 272.292969 285.078125 273.101562 283.464844 273.90625 C 279.964844 275.523438 276.464844 277.40625 272.695312 279.023438 C 271.621094 279.5625 270.273438 279.828125 269.195312 280.367188 C 267.3125 281.175781 265.429688 281.714844 263.542969 282.253906 C 259.773438 283.328125 256.277344 285.214844 252.238281 286.289062 C 249.007812 287.367188 245.777344 288.445312 242.546875 289.519531 C 241.46875 289.789062 240.660156 290.058594 239.585938 290.058594 C 237.96875 290.328125 236.625 290.867188 235.277344 291.675781 C 235.277344 291.675781 235.007812 291.675781 234.738281 291.945312 C 232.046875 292.480469 229.355469 293.019531 226.664062 293.289062 C 225.585938 293.558594 224.78125 293.828125 223.703125 293.828125 C 222.085938 294.367188 220.203125 294.636719 218.585938 295.175781 C 216.972656 295.710938 215.359375 295.980469 213.742188 295.710938 C 212.933594 295.710938 212.128906 296.25 211.050781 296.519531 C 209.433594 296.789062 207.820312 297.058594 206.203125 297.328125 C 204.050781 297.597656 201.628906 298.136719 199.476562 298.40625 C 197.320312 298.671875 195.167969 299.210938 193.015625 299.480469 C 192.207031 299.480469 191.128906 299.480469 190.320312 299.480469 C 188.976562 299.480469 187.628906 300.019531 186.285156 299.75 C 185.476562 299.75 184.398438 300.289062 183.59375 300.289062 C 183.054688 300.289062 182.246094 300.289062 181.707031 300.019531 C 181.167969 300.019531 180.632812 299.75 180.363281 300.019531 C 179.554688 300.019531 178.207031 300.019531 176.59375 300.019531 C 174.976562 300.019531 173.632812 300.558594 172.015625 300.558594 C 169.863281 300.828125 167.980469 300.828125 165.824219 300.828125 C 163.132812 300.828125 160.441406 300.828125 157.75 300.828125 C 155.863281 300.828125 153.980469 301.097656 152.097656 301.097656 C 149.132812 301.097656 146.441406 300.828125 143.480469 300.558594 C 142.40625 300.558594 141.058594 300.828125 139.710938 300.828125 C 137.828125 300.828125 135.945312 300.558594 133.789062 300.558594 C 130.828125 300.289062 128.136719 299.75 125.175781 299.480469 C 123.5625 299.210938 121.945312 299.480469 120.332031 299.210938 C 118.445312 298.941406 116.5625 298.671875 114.675781 298.136719 C 112.253906 297.597656 109.832031 296.789062 107.410156 296.789062 C 102.292969 296.25 97.71875 294.097656 93.140625 292.75 C 91.796875 292.480469 90.449219 291.945312 89.105469 291.675781 C 88.027344 291.40625 86.679688 290.867188 85.605469 290.328125 C 84.257812 289.789062 82.910156 288.984375 81.566406 288.445312 C 80.757812 288.175781 79.679688 287.90625 78.875 287.636719 C 74.296875 285.214844 69.722656 282.523438 65.144531 279.828125 C 61.375 277.40625 57.605469 274.714844 54.378906 271.753906 C 52.761719 270.40625 51.148438 269.332031 49.53125 267.984375 C 48.453125 267.175781 47.378906 266.101562 46.300781 265.023438 C 43.878906 262.601562 41.457031 259.910156 39.300781 257.484375 C 38.496094 256.410156 37.6875 255.332031 36.878906 254.257812 C 35.265625 252.640625 34.1875 251.027344 33.109375 249.140625 C 32.839844 248.871094 32.570312 248.332031 32.304688 248.0625 C 32.035156 247.796875 31.765625 247.527344 31.496094 246.988281 C 29.609375 243.757812 27.726562 240.527344 25.84375 237.296875 C 24.765625 235.410156 24.226562 233.527344 23.148438 231.644531 C 20.726562 227.335938 19.652344 222.492188 18.035156 217.644531 C 17.226562 215.222656 16.6875 212.53125 16.421875 209.839844 C 16.421875 209.570312 16.421875 209.300781 16.421875 209.300781 C 15.613281 206.609375 15.34375 203.648438 15.074219 200.953125 C 15.074219 197.722656 15.074219 194.761719 14.804688 191.800781 C 14.804688 191.800781 14.804688 191.53125 14.804688 191.53125 C 14.535156 187.765625 15.34375 183.996094 15.34375 180.496094 C 15.34375 179.148438 16.152344 177.804688 16.421875 176.457031 C 16.957031 174.304688 17.496094 172.152344 18.304688 170.265625 C 19.652344 167.304688 21.265625 164.074219 22.34375 160.84375 C 23.6875 157.613281 25.574219 154.921875 27.457031 151.960938 C 28.804688 149.808594 30.6875 147.921875 32.304688 146.039062 C 32.839844 145.5 33.109375 144.960938 33.648438 144.421875 C 33.917969 144.421875 33.917969 143.886719 34.1875 143.886719 C 35.800781 142.808594 36.878906 140.921875 38.226562 139.308594 C 39.300781 137.691406 40.917969 136.617188 42.261719 135.269531 C 43.609375 133.925781 45.222656 132.847656 46.570312 131.5 C 47.917969 130.425781 48.992188 129.078125 50.339844 128.003906 C 50.878906 127.464844 51.683594 126.925781 52.222656 126.386719 C 52.492188 126.117188 53.03125 125.847656 53.300781 125.578125 C 54.644531 124.503906 55.992188 123.425781 57.339844 122.347656 C 57.605469 122.347656 57.605469 122.078125 57.875 122.078125 C 59.761719 121.003906 61.375 119.65625 63.261719 118.582031 C 65.414062 117.234375 67.296875 115.617188 69.453125 114.273438 C 71.335938 112.925781 73.222656 111.851562 74.835938 110.503906 C 74.835938 110.503906 75.105469 110.503906 75.105469 110.234375 C 77.796875 108.082031 81.296875 106.734375 84.257812 104.851562 C 86.679688 103.234375 89.105469 101.890625 91.527344 100.8125 C 93.949219 99.738281 96.101562 98.121094 98.257812 97.042969 C 102.023438 95.160156 105.792969 93.277344 109.832031 91.660156 C 113.332031 90.046875 116.832031 88.699219 120.332031 87.085938 C 122.753906 86.277344 125.175781 85.46875 127.597656 84.660156 C 130.828125 83.585938 134.328125 82.507812 137.558594 81.429688 C 140.519531 80.625 143.480469 79.546875 146.441406 78.738281 C 148.328125 78.199219 150.210938 78.199219 152.097656 77.929688 C 153.710938 77.660156 155.59375 77.394531 157.210938 77.125 C 157.75 77.125 158.289062 76.855469 158.824219 76.855469 C 162.59375 76.316406 166.09375 76.046875 169.863281 75.777344 C 172.015625 75.507812 174.171875 75.507812 176.324219 75.238281 C 177.9375 75.238281 179.824219 74.96875 181.4375 74.699219 C 182.785156 74.699219 183.859375 74.699219 185.207031 74.433594 C 188.167969 74.164062 191.128906 73.894531 194.089844 74.164062 C 195.4375 74.164062 196.78125 74.699219 198.128906 75.238281 C 198.9375 74.96875 199.476562 75.507812 199.742188 75.777344 Z M 155.058594 93.542969 C 155.59375 93.8125 155.863281 93.8125 156.402344 93.8125 C 156.671875 93.8125 156.941406 93.542969 157.210938 93.542969 C 157.210938 93.277344 157.210938 92.738281 157.210938 92.46875 C 156.402344 91.929688 155.59375 92.199219 155.058594 93.542969 Z M 160.441406 93.277344 C 160.171875 92.46875 159.632812 92.46875 159.09375 93.277344 C 159.902344 93.277344 160.171875 93.277344 160.441406 93.277344 Z M 160.441406 93.277344 " fill-opacity="1" fill-rule="nonzero"/></g><path fill="#c1ff72" d="M 155.058594 93.542969 C 155.863281 92.199219 156.402344 91.929688 156.941406 92.46875 C 157.210938 92.738281 157.210938 93.007812 156.941406 93.542969 C 156.941406 93.8125 156.402344 93.8125 156.132812 93.8125 C 155.863281 94.082031 155.59375 93.8125 155.058594 93.542969 Z M 155.058594 93.542969 " fill-opacity="1" fill-rule="nonzero"/><path fill="#c1ff72" d="M 160.441406 93.277344 C 160.171875 93.277344 159.902344 93.277344 159.09375 93.277344 C 159.902344 92.46875 160.171875 92.46875 160.441406 93.277344 Z M 160.441406 93.277344 " fill-opacity="1" fill-rule="nonzero"/><g fill="#ffffff" fill-opacity="1"><g transform="translate(4.999513, 257.424977)"><g><path d="M 73.234375 -83.046875 C 85.515625 -81.046875 94.921875 -76.472656 101.453125 -69.328125 C 107.992188 -62.191406 111.265625 -53.359375 111.265625 -42.828125 C 111.265625 -34.679688 109.128906 -27.171875 104.859375 -20.296875 C 100.585938 -13.429688 94.082031 -7.929688 85.34375 -3.796875 C 76.601562 0.335938 65.898438 2.40625 53.234375 2.40625 C 43.359375 2.40625 33.648438 1.101562 24.109375 -1.5 C 14.578125 -4.101562 6.472656 -7.804688 -0.203125 -12.609375 L 12.40625 -37.421875 C 17.738281 -33.421875 23.90625 -30.316406 30.90625 -28.109375 C 37.914062 -25.910156 45.085938 -24.8125 52.421875 -24.8125 C 60.566406 -24.8125 66.972656 -26.378906 71.640625 -29.515625 C 76.304688 -32.648438 78.640625 -37.085938 78.640625 -42.828125 C 78.640625 -54.296875 69.898438 -60.03125 52.421875 -60.03125 L 37.625 -60.03125 L 37.625 -81.4375 L 66.4375 -114.0625 L 6.796875 -114.0625 L 6.796875 -140.078125 L 104.859375 -140.078125 L 104.859375 -119.0625 Z M 73.234375 -83.046875 "/></g></g></g><g fill="#ffffff" fill-opacity="1"><g transform="translate(123.459743, 257.424977)"><g><path d="M 75.234375 -87.84375 C 84.179688 -87.84375 92.320312 -86.039062 99.65625 -82.4375 C 106.988281 -78.84375 112.789062 -73.742188 117.0625 -67.140625 C 121.332031 -60.535156 123.46875 -52.894531 123.46875 -44.21875 C 123.46875 -34.882812 121.128906 -26.679688 116.453125 -19.609375 C 111.785156 -12.535156 105.414062 -7.097656 97.34375 -3.296875 C 89.28125 0.503906 80.3125 2.40625 70.4375 2.40625 C 50.820312 2.40625 35.476562 -3.597656 24.40625 -15.609375 C 13.332031 -27.617188 7.796875 -44.757812 7.796875 -67.03125 C 7.796875 -82.90625 10.796875 -96.515625 16.796875 -107.859375 C 22.804688 -119.203125 31.179688 -127.804688 41.921875 -133.671875 C 52.660156 -139.546875 65.101562 -142.484375 79.25 -142.484375 C 86.71875 -142.484375 93.882812 -141.644531 100.75 -139.96875 C 107.625 -138.300781 113.460938 -135.9375 118.265625 -132.875 L 106.265625 -109.0625 C 99.328125 -113.726562 90.585938 -116.0625 80.046875 -116.0625 C 68.171875 -116.0625 58.765625 -112.59375 51.828125 -105.65625 C 44.890625 -98.71875 41.15625 -88.644531 40.625 -75.4375 C 48.894531 -83.707031 60.429688 -87.84375 75.234375 -87.84375 Z M 68.640625 -21.8125 C 75.578125 -21.8125 81.210938 -23.675781 85.546875 -27.40625 C 89.878906 -31.144531 92.046875 -36.21875 92.046875 -42.625 C 92.046875 -49.03125 89.878906 -54.132812 85.546875 -57.9375 C 81.210938 -61.738281 75.441406 -63.640625 68.234375 -63.640625 C 61.160156 -63.640625 55.359375 -61.671875 50.828125 -57.734375 C 46.296875 -53.796875 44.03125 -48.757812 44.03125 -42.625 C 44.03125 -36.488281 46.226562 -31.484375 50.625 -27.609375 C 55.03125 -23.742188 61.035156 -21.8125 68.640625 -21.8125 Z M 68.640625 -21.8125 "/></g></g></g><g fill="#ffffff" fill-opacity="1"><g transform="translate(250.92453, 257.424977)"><g><path d="M 55.828125 -87.453125 C 75.578125 -87.453125 90.148438 -83.515625 99.546875 -75.640625 C 108.953125 -67.765625 113.65625 -57.226562 113.65625 -44.03125 C 113.65625 -35.488281 111.519531 -27.710938 107.25 -20.703125 C 102.988281 -13.703125 96.488281 -8.097656 87.75 -3.890625 C 79.007812 0.304688 68.238281 2.40625 55.4375 2.40625 C 45.5625 2.40625 35.851562 1.101562 26.3125 -1.5 C 16.769531 -4.101562 8.664062 -7.804688 2 -12.609375 L 14.8125 -37.421875 C 20.144531 -33.421875 26.28125 -30.316406 33.21875 -28.109375 C 40.15625 -25.910156 47.289062 -24.8125 54.625 -24.8125 C 62.769531 -24.8125 69.175781 -26.410156 73.84375 -29.609375 C 78.507812 -32.816406 80.84375 -37.289062 80.84375 -43.03125 C 80.84375 -49.03125 78.40625 -53.5625 73.53125 -56.625 C 68.664062 -59.695312 60.226562 -61.234375 48.21875 -61.234375 L 12.40625 -61.234375 L 19.609375 -140.078125 L 105.0625 -140.078125 L 105.0625 -114.0625 L 46.625 -114.0625 L 44.421875 -87.453125 Z M 55.828125 -87.453125 "/></g></g></g></svg>